<?xml version="1.0" encoding="UTF-8"?>
<svg id="Layer_1" xmlns="http://www.w3.org/2000/svg" version="1.1" viewBox="0 0 1000 1000">
  <!-- Generator: Adobe Illustrator 29.8.3, SVG Export Plug-In . SVG Version: 2.1.1 Build 3)  -->
  <defs>
    <style>
      .st0 {
        fill: #bf5b1c;
      }

      .st1 {
        fill: #f6a53c;
      }

      .st2 {
        fill: #47250f;
      }

      .st3 {
        fill: #dc7e31;
      }

      .st4 {
        fill: #f6c04e;
      }

      .st5 {
        fill: #8db034;
      }

      .st6 {
        fill: #e9be55;
      }

      .st7 {
        fill: #cd6524;
      }

      .st8 {
        fill: #f4c358;
      }

      .st9 {
        fill: #bf6e25;
      }

      .st10 {
        fill: #f0bf57;
      }

      .st11 {
        fill: #f69f31;
      }

      .st12 {
        fill: #6c461b;
      }

      .st13 {
        fill: #f4a136;
      }

      .st14 {
        fill: #f2bb55;
      }

      .st15 {
        fill: #f9cf64;
      }

      .st16 {
        fill: #f7ce61;
      }

      .st17 {
        fill: #eed58e;
      }

      .st18 {
        fill: #f4c155;
      }

      .st19 {
        fill: #f6d364;
      }

      .st20 {
        fill: #f7cf5f;
      }

      .st21 {
        fill: #c86121;
      }

      .st22 {
        fill: #c36b20;
      }

      .st23 {
        fill: #744a1e;
      }

      .st24 {
        fill: #f5bd4e;
      }

      .st25 {
        fill: #eeb457;
      }

      .st26 {
        fill: #f6c354;
      }

      .st27 {
        fill: #f5d663;
      }

      .st28 {
        fill: #8d652a;
      }

      .st29 {
        fill: #f6c352;
      }

      .st30 {
        fill: #c86c1f;
      }

      .st31 {
        fill: #f0cb72;
      }

      .st32 {
        fill: #739f26;
      }

      .st33 {
        fill: #bfce73;
      }

      .st34 {
        fill: #dda34c;
      }

      .st35 {
        fill: #efbc58;
      }

      .st36 {
        fill: #e9b856;
      }

      .st37 {
        fill: #fafbfc;
      }

      .st38 {
        fill: #f1c067;
      }

      .st39 {
        fill: #96b639;
      }

      .st40 {
        fill: #ebbf59;
      }

      .st41 {
        fill: #efc165;
      }

      .st42 {
        fill: #2b1610;
      }

      .st43 {
        fill: #f5c556;
      }

      .st44 {
        fill: #f3bf53;
      }

      .st45 {
        fill: #f7c85c;
      }

      .st46 {
        fill: #d87621;
      }

      .st47 {
        fill: #ecc15c;
      }

      .st48 {
        fill: #d46e20;
      }

      .st49 {
        fill: #fcfcfc;
      }

      .st50 {
        fill: #350f08;
      }

      .st51 {
        fill: #afc54e;
      }

      .st52 {
        fill: #2a1c0b;
      }

      .st53 {
        fill: #1e120d;
      }

      .st54 {
        fill: #e9be5c;
      }

      .st55 {
        fill: #9cbc3a;
      }

      .st56 {
        fill: #f4c457;
      }

      .st57 {
        fill: #f0b244;
      }

      .st58 {
        fill: #f8ca5e;
      }

      .st59 {
        fill: #f5992e;
      }

      .st60 {
        fill: #20442e;
      }

      .st61 {
        fill: #c8662d;
      }

      .st62 {
        fill: #430e07;
      }

      .st63 {
        fill: #cb6620;
      }

      .st64 {
        fill: #f0bf5a;
      }

      .st65 {
        fill: #f3a135;
      }

      .st66 {
        fill: #bd5814;
      }

      .st67 {
        fill: #f3c86c;
      }

      .st68 {
        fill: #ca641c;
      }

      .st69 {
        fill: #f6ce62;
      }

      .st70 {
        fill: #92692d;
      }

      .st71 {
        fill: #8eb137;
      }

      .st72 {
        fill: #23462f;
      }

      .st73 {
        fill: #e3a254;
      }

      .st74 {
        fill: #f5c351;
      }

      .st75 {
        fill: #99b939;
      }

      .st76 {
        fill: #cb7438;
      }

      .st77 {
        fill: #f6c559;
      }

      .st78 {
        fill: #eeb857;
      }

      .st79 {
        fill: #c97928;
      }

      .st80 {
        fill: #f1bc54;
      }

      .st81 {
        fill: #ebc261;
      }

      .st82 {
        fill: #f7ca61;
      }

      .st83 {
        fill: #eabc66;
      }

      .st84 {
        fill: #cd6a22;
      }

      .st85 {
        fill: #6c5831;
      }

      .st86 {
        fill: #ed820a;
      }

      .st87 {
        fill: #f4c454;
      }

      .st88 {
        fill: #f2b64f;
      }

      .st89 {
        fill: #f2c45f;
      }

      .st90 {
        fill: #f1be53;
      }

      .st91 {
        fill: #f6ca5c;
      }

      .st92 {
        fill: #f1be5a;
      }

      .st93 {
        fill: #49190c;
      }

      .st94 {
        fill: #f4c35c;
      }

      .st95 {
        fill: #452510;
      }

      .st96 {
        fill: #f5ce7d;
      }

      .st97 {
        fill: #c8611d;
      }

      .st98 {
        fill: #f4c65b;
      }

      .st99 {
        fill: #cc601e;
      }

      .st100 {
        fill: #f8d16b;
      }

      .st101 {
        fill: #e97c0c;
      }

      .st102 {
        fill: #f1c568;
      }

      .st103 {
        fill: #603812;
      }

      .st104 {
        fill: #f2c05a;
      }

      .st105 {
        fill: #eebb56;
      }

      .st106 {
        fill: #f4c657;
      }

      .st107 {
        fill: #e7c569;
      }

      .st108 {
        fill: #e0b25b;
      }

      .st109 {
        fill: #e7ba63;
      }

      .st110 {
        fill: #f6cc63;
      }

      .st111 {
        fill: #f5c45b;
      }

      .st112 {
        fill: #9ab93f;
      }

      .st113 {
        fill: #efc356;
      }

      .st114 {
        fill: #f0992e;
      }

      .st115 {
        fill: #cd6722;
      }

      .st116 {
        fill: #efbe5c;
      }

      .st117 {
        fill: #1a73e8;
      }

      .st118 {
        fill: #f5c558;
      }

      .st119 {
        fill: #f6cb63;
      }

      .st120 {
        fill: #f6c153;
      }

      .st121 {
        fill: #f7da9a;
      }

      .st122 {
        fill: #f6fafa;
      }

      .st123 {
        fill: #f4bf54;
      }

      .st124 {
        fill: #f6cb62;
      }

      .st125 {
        fill: #dfa451;
      }

      .st126 {
        fill: #c6611f;
      }

      .st127 {
        fill: #fbfbfb;
      }

      .st128 {
        fill: #f1bd5f;
      }

      .st129 {
        fill: #e07b24;
      }

      .st130 {
        fill: #f49f31;
      }

      .st131 {
        fill: #f7cb60;
      }

      .st132 {
        fill: #f8cc5d;
      }

      .st133 {
        fill: #f6c65d;
      }

      .st134 {
        fill: #c23913;
      }

      .st135 {
        fill: #f69f33;
      }

      .st136 {
        fill: #f6c85f;
      }

      .st137 {
        fill: #f2c85d;
      }

      .st138 {
        fill: #f6cd66;
      }

      .st139 {
        fill: #f7cb65;
      }

      .st140 {
        fill: #f2f2f2;
      }

      .st141 {
        fill: #cc6e23;
      }

      .st142 {
        fill: #f7d367;
      }

      .st143 {
        fill: #a9c245;
      }

      .st144 {
        fill: #eeb753;
      }

      .st145 {
        fill: #d57637;
      }

      .st146 {
        fill: #d1a351;
      }

      .st147 {
        fill: #f2c25a;
      }

      .st148 {
        fill: #aec64a;
      }

      .st149 {
        fill: #aec767;
      }

      .st150 {
        fill: #e4a74d;
      }

      .st151 {
        fill: #fafbfb;
      }

      .st152 {
        fill: #d96f21;
      }

      .st153 {
        fill: #f2c25d;
      }

      .st154 {
        fill: #f3c257;
      }

      .st155 {
        fill: #1f4127;
      }

      .st156 {
        fill: #f5c34d;
      }

      .st157 {
        fill: #1a462f;
      }

      .st158 {
        fill: #d2a257;
      }

      .st159 {
        fill: #f6cc67;
      }

      .st160 {
        fill: #f9cd58;
      }

      .st161 {
        fill: #cb6020;
      }

      .st162 {
        fill: #f4c252;
      }

      .st163 {
        fill: #583513;
      }

      .st164 {
        fill: #d2702f;
      }

      .st165 {
        fill: #e8b453;
      }

      .st166 {
        fill: #f3bb52;
      }

      .st167 {
        fill: #f6d060;
      }

      .st168 {
        fill: #f5c655;
      }

      .st169 {
        fill: #e9b859;
      }

      .st170 {
        fill: #f5cc63;
      }

      .st171 {
        fill: #f7d067;
      }

      .st172 {
        fill: #eeb852;
      }

      .st173 {
        fill: #f3cc7e;
      }

      .st174 {
        fill: #95b634;
      }

      .st175 {
        fill: #db792a;
      }

      .st176 {
        fill: #d16720;
      }

      .st177 {
        fill: #f6d48f;
      }

      .st178 {
        fill: #d26f22;
      }

      .st179 {
        fill: #adc84d;
      }

      .st180 {
        fill: #ecbb52;
      }

      .st181 {
        fill: #cf6823;
      }

      .st182 {
        fill: #cf822c;
      }

      .st183 {
        fill: #f8cc61;
      }

      .st184 {
        fill: #f8cb5d;
      }

      .st185 {
        fill: #cb661f;
      }

      .st186 {
        fill: #fad767;
      }

      .st187 {
        fill: #cc6b20;
      }

      .st188 {
        fill: #facd5c;
      }

      .st189 {
        fill: #cb6423;
      }

      .st190 {
        fill: #f2bd4f;
      }

      .st191 {
        fill: #8fb137;
      }

      .st192 {
        fill: #eeb64e;
      }

      .st193 {
        fill: #f8c55a;
      }

      .st194 {
        fill: #f0c069;
      }

      .st195 {
        fill: #eec563;
      }

      .st196 {
        fill: #e6c472;
      }

      .st197 {
        fill: #193e22;
      }

      .st198 {
        fill: #a07030;
      }

      .st199 {
        fill: #ecb550;
      }

      .st200 {
        fill: #f7ebd2;
      }

      .st201 {
        fill: #fbfcfc;
      }

      .st202 {
        fill: #e7b359;
      }

      .st203 {
        fill: #ebbf6c;
      }

      .st204 {
        fill: #edc36a;
      }

      .st205 {
        fill: #efb750;
      }

      .st206 {
        fill: #f7c65e;
      }

      .st207 {
        fill: #eaae49;
      }

      .st208 {
        fill: #f6c65c;
      }

      .st209 {
        fill: #b0c550;
      }

      .st210 {
        fill: #432c14;
      }

      .st211 {
        fill: #f8ca60;
      }

      .st212 {
        fill: #cb6418;
      }

      .st213 {
        fill: #f6d58f;
      }

      .st214 {
        fill: #f6c866;
      }

      .st215 {
        fill: #f3c65b;
      }

      .st216 {
        fill: #f6cd6d;
      }

      .st217 {
        fill: #dcac54;
      }

      .st218 {
        fill: #f9fbfb;
      }

      .st219 {
        fill: #f4c34d;
      }

      .st220 {
        fill: #f0c45b;
      }

      .st221 {
        fill: #f7ce60;
      }

      .st222 {
        fill: #f8c756;
      }

      .st223 {
        fill: #6c941c;
      }

      .st224 {
        fill: #f7d261;
      }

      .st225 {
        fill: #edc766;
      }

      .st226 {
        fill: #f7d16d;
      }

      .st227 {
        fill: #e4da9f;
      }

      .st228 {
        fill: #e9cb76;
      }

      .st229 {
        fill: #f2bb58;
      }

      .st230 {
        fill: #d57523;
      }

      .st231 {
        fill: #f0c567;
      }

      .st232 {
        fill: #f5c353;
      }

      .st233 {
        fill: #f8d065;
      }

      .st234 {
        fill: #f0bc57;
      }

      .st235 {
        fill: #fafcfc;
      }

      .st236 {
        fill: #fafcfd;
      }

      .st237 {
        fill: #efc360;
      }

      .st238 {
        fill: #cc681e;
      }

      .st239 {
        fill: #f2c056;
      }

      .st240 {
        fill: #734516;
      }

      .st241 {
        fill: #f39f33;
      }

      .st242 {
        fill: #cb6623;
      }

      .st243 {
        fill: #f5c14e;
      }

      .st244 {
        fill: #f6c555;
      }

      .st245 {
        fill: #bf591d;
      }

      .st246 {
        fill: #d77120;
      }

      .st247 {
        fill: #d89036;
      }

      .st248 {
        fill: #efc55d;
      }

      .st249 {
        fill: #f6c960;
      }

      .st250 {
        fill: #3a130b;
      }

      .st251 {
        fill: #a8bf5f;
      }

      .st252 {
        fill: #ca671f;
      }

      .st253 {
        fill: #d57f3f;
      }

      .st254 {
        fill: #f0c26b;
      }

      .st255 {
        fill: #f0b64c;
      }

      .st256 {
        fill: #f6c656;
      }

      .st257 {
        fill: #fad664;
      }

      .st258 {
        fill: #f6c453;
      }

      .st259 {
        fill: #b25928;
      }

      .st260 {
        fill: #f6c661;
      }

      .st261 {
        fill: #facd5e;
      }

      .st262 {
        fill: #bd671b;
      }

      .st263 {
        fill: #d06617;
      }

      .st264 {
        fill: #c4651b;
      }

      .st265 {
        fill: #ce651d;
      }

      .st266 {
        fill: #f8d569;
      }

      .st267 {
        fill: #f7ca62;
      }

      .st268 {
        fill: #eacb6f;
      }

      .st269 {
        fill: #eec16f;
      }

      .st270 {
        fill: #f8ca57;
      }

      .st271 {
        fill: #e4c25f;
      }

      .st272 {
        fill: #f6c456;
      }

      .st273 {
        fill: #214128;
      }

      .st274 {
        fill: #f3c55b;
      }

      .st275 {
        fill: #efd476;
      }

      .st276 {
        fill: #f7c95c;
      }

      .st277 {
        fill: #ce6e23;
      }

      .st278 {
        fill: #4b3314;
      }

      .st279 {
        fill: #f2a135;
      }

      .st280 {
        fill: #dea552;
      }

      .st281 {
        fill: #f7cc66;
      }

      .st282 {
        fill: #f6c55b;
      }

      .st283 {
        fill: #f5c257;
      }

      .st284 {
        fill: #d0671b;
      }

      .st285 {
        fill: #d56d22;
      }

      .st286 {
        fill: #f4be54;
      }

      .st287 {
        fill: #f5c961;
      }

      .st288 {
        fill: #c66219;
      }

      .st289 {
        fill: #f4c45c;
      }

      .st290 {
        fill: #cf6820;
      }

      .st291 {
        fill: #cc7b2d;
      }

      .st292 {
        fill: #755e35;
      }

      .st293 {
        fill: #d7ab57;
      }

      .st294 {
        fill: #ecc66a;
      }

      .st295 {
        fill: #c9631f;
      }

      .st296 {
        fill: #d2641d;
      }

      .st297 {
        fill: #9fbd41;
      }

      .st298 {
        fill: #f8cf5e;
      }

      .st299 {
        fill: #f8cd64;
      }

      .st300 {
        fill: #f6c85a;
      }

      .st301 {
        fill: #f2c35f;
      }

      .st302 {
        fill: #c66a23;
      }

      .st303 {
        fill: #bfc777;
      }

      .st304 {
        fill: #e1b664;
      }

      .st305 {
        fill: #f6ca64;
      }

      .st306 {
        fill: #f5bb4c;
      }

      .st307 {
        fill: #f0b84e;
      }

      .st308 {
        fill: #f1c15e;
      }

      .st309 {
        fill: #c45b1a;
      }

      .st310 {
        fill: #f8c555;
      }

      .st311 {
        fill: #d46e24;
      }

      .st312 {
        fill: #eebb54;
      }

      .st313 {
        fill: #d28531;
      }

      .st314 {
        fill: #d06a21;
      }

      .st315 {
        fill: #adc648;
      }

      .st316 {
        fill: #2a1d11;
      }

      .st317 {
        fill: #fcfdfd;
      }

      .st318 {
        fill: #f4ce84;
      }

      .st319 {
        fill: #ebb24d;
      }

      .st320 {
        fill: #ebbb6a;
      }

      .st321 {
        fill: #efbf57;
      }

      .st322 {
        fill: #f0bc4e;
      }

      .st323 {
        fill: #8eb136;
      }

      .st324 {
        fill: #d27030;
      }

      .st325 {
        fill: #f6c152;
      }

      .st326 {
        fill: #ecb558;
      }

      .st327 {
        fill: #f7cc63;
      }

      .st328 {
        fill: #d7771d;
      }

      .st329 {
        fill: #f8ce65;
      }

      .st330 {
        fill: #e5da9a;
      }

      .st331 {
        fill: #dd8636;
      }

      .st332 {
        fill: #d9a34e;
      }

      .st333 {
        fill: #193f24;
      }

      .st334 {
        fill: #f4cf80;
      }

      .st335 {
        fill: #c6671d;
      }

      .st336 {
        fill: #f8c75e;
      }

      .st337 {
        fill: #f8cb54;
      }

      .st338 {
        fill: #eab65a;
      }

      .st339 {
        fill: #f2cc66;
      }

      .st340 {
        fill: #f6d690;
      }
    </style>
  </defs>
  <circle class="st117" cx="501.1" cy="502.3" r="234.1"/>
  <circle class="st140" cx="500.1" cy="500.1" r="165.3"/>
  <g>
    <path d="M281.3,471.4c-.6-4.3-2.4-8.1-3.2-12.4s-2.6-18.9-5.4-24.5-3-3.5-7.2-7.3c3.7-.6,6.5,1.4,9.6,2.7s1.4,1,1.9,1.4c1.9,2,4.5,3.8,6.5,6s2.7,3.2,3.6,4.8c.4.6.2.9-.5.5h-1.2q0,0,0,0c-3.3-4.7-7.7-8.7-12.7-11.6s0,0,0,0c3.4,4.1,5,9.3,5.7,14.5.6,8.3,2.2,16.4,4.8,24.3,0,0,0,0,0,0l-.4,1.7c.3,1.6,0,2.2-1,1.9h-1.3s0,0,0,0c-4.8-3.4-9.4-7-13.8-10.7s0,0,0,0l6.8,11.2c.2.3.3.7.2,1.1v.4c-.1.3,0,.6,0,.9.6,1.3,1.2,2.6,1.7,3.9,2.2,4.4,4.7,8.9,7.3,13.3s0,0,0,0v1.6c-.3.3-.4.3-.6,0l-.5-.5c-3.7-6.4-11.5-20.6-11.5-20.6,0,0,0,0,0,0-.4-.8-.6-1.1-.7-1.3-1.5-1.6-3.3-4.8-4.1-6.8-3.2-8.1-2-5.3-2.7-7s-.9-2.8-1.1-5.4c.7,0,.8.3,1.2.9,1.7,2.4,3.1,5.1,5.2,7.3"/>
    <path d="M728.5,476l-.8,1.1-.2,2.3c-5.9,12.1-15,26.2-24.1,35.9l-2-1.8,3-1.2c5.8-8,11.1-16.3,16.1-25l-5,5.4-1.6.2c-.7.6-.9.4-.5-.5l.3-1.7c8.5-9,15.4-19.6,21-30.6-3.4,3.8-7.2,7.2-11.3,10.3h-1.4c-.7.5-1.2,0-.5-.6,1.2-.9,4.3-3.8,7.2-5.8,0,0,1.6-1.2,2.1-1.7,1.2-1.1.8-.6,1.2-1.1,2.5-3.1,4.4-5.8,5.4-6.6s.3,0,.3.2c-.2,3.3-1.1,5.4-2.5,8.4"/>
    <path class="st60" d="M274.1,562.5c-.6-.7-2.2,1.8-2.9,1.5,1-2.6,2-4.4,2-4.4l2.8-5.2c.3-.4.5-.3.5.5.9,1.1.8,2.6-.1,4.6,6.3-5.3,9.6-12.4,10.1-21.4.2-2.6,1.1-4.4,2.6-5.3.6-.3.8,0,.5.5-1.4,4.9-1.4,11.6-3.2,16.3s-4.6,8-6.4,9.9"/>
    <path class="st117" d="M712.8,599c-.1.3-.3.3-.5,0"/>
    <path d="M724.6,430.4c3.2-1.8,5.6-3.4,9.4-3.4s.4.4.2.5l-3.8,2.8c-2,2-4.2,3.7-4.8,6.9-.2-.4-.5-.7-.8-1.1l-.5-1.1c4.6-5.8,3.6-5.6-3.1.5-1,1.1-1.9,1.3-2.6.6.8-1.7,2.7-2.9,4.3-4.8s.6-.3,1.7-.9Z"/>
    <path class="st49" d="M583.2,326.4l1.9,18.7c-.6.6-10.3-4.5-12-4.8.6-2.1.7-14.5-.3-15.4s-1.4-.5-1.6-.4c-.6.4-4.4,11.3-3.9,12.9-1.7-.8-11.7-3.9-12-5.1,1.4-2.9,3.1-5.6,4.4-8.5,2.6-5.8,5.7-12.7,7.8-18.6s2.1-5.1,1.7-8.2c6.5,2.4,21.8,6.4,24.1,13.6,2.2,6.7-2.9,15.5-10.2,15.7Z"/>
    <path class="st49" d="M487.2,285.6c0,6.9.5,13.8,1.8,20.7.5,5.4.8,11.6-3.3,15.8-3,2.4-6.9,4-10.8,4.3-19.6,1.4-16.2-17.7-19.1-30.8s-1.5-3.6-1.8-5.7l13.4-1.9c-.2,1.4-.5,2.6-.5,4.1.1,4.9,1.7,17.4,3.1,21.9s1.1,3.5,3.4,3.8,3.8.2,4.6-1.6c1.3-3-.9-17.1-1.6-21.1s-1.1-5.3-1.8-8c2.6.1,10.5-2.1,12.5-1.4Z"/>
    <path class="st317" d="M391.2,315.8c.7,3.6,2.8,7.3,4.6,10.6s4.8,9.3,7,12.1c3.5,4.6,10,2.6,7.7-4.2s-9.1-17.7-11.5-20.6-1.4-.6-1.4-.9c0-.9,1.6-1.6,2.3-2.1,2.8-1.7,5.9-3,8.8-4.4-.2,1.7.5,3,1.1,4.4,3.2,7.6,12.2,18.9,11.3,27s-15.3,16.3-23.6,10.8-11.3-17.3-15.3-23.6-2.4-1.7-1.4-3,10.1-6.4,10.6-6Z"/>
    <path class="st317" d="M379.4,365.1c.6.6,4.6,3.5,4.6,3.8-2.5,1.9-4.6,4.6-7,6.5s-2.9,2.5-3.6,1.9c-1.2-3.8-4.3-7.2-6.7-10.3-4.2-5.4-10.2-13.2-15-17.8s-2-1-2.7-1.8c7.9-7,20.5-21.6,31.2-10.6s3.1,17.7-5.3,23.1c1.7,1.5,2.9,3.8,4.5,5.4Z"/>
    <path class="st235" d="M642,341c3.4,3.3.2,2.2-1.2,5.9l-13.3,31.4c-.7.2-8.9-7.2-9.8-8.4,1.6-1.1,5.2-4.9,3.9-6.8s-4.8-4.1-5.4-4.3c-2.7-1-5,4.7-6.2,4.4l-8.1-6.8,30.5-22.8,1.1.2c2.4,2.7,5.9,4.7,8.4,7.2Z"/>
    <path class="st49" d="M436.8,322.6c1,4.1,2.7,7.9,4.8,11.5-3.6.7-7.6,3.3-11,4.1s-1.3-2.6-1.7-4.1c-2.1-8.5-6.4-17.3-8.7-25.9l-2.9-6.3c9.3-3.3,25.7-12.4,31.7.5s-1.9,18.4-12.2,20.2Z"/>
    <path class="st49" d="M521.8,286.6c0,1.7-.3,11.3-.9,11.8s-3.3-.2-3.9-.5c-.9-.5-1.8-2.9-2.9-3.8-4.5-4.1-10.3-.1-7,3.6s14.4,4.4,15.6,12.3c1.7,11.2-6.6,16.4-16.9,15s-4.9-2.2-6.4-2.3-3.2,2.5-3.6-.7.1-10.4.5-10.8,3.8,0,4.3.2,1.7,3.1,2.6,3.9c3.9,3.6,10.9,2,8.2-2.7s-14.1-4.3-15.4-13.8,7.1-14.7,15.9-13.5c1.9.3,4.6,2.2,6.3,2.1s2.3-1.1,3.6-.8Z"/>
    <path class="st127" d="M551.5,307.2l-1.9,7-8.7-1.7c0,2.3-1.3,4.6-1.5,7s0,.5.7.7c3.8,1,8.9,2.2,12.7,1.5.4.5-1.7,8.9-2.4,9.4l-24.3-5.5,3.2-10.8c.9-6.8,3.8-14.2,4.6-20.8s0-3.8-.4-5.9l24.9,5.3c0,2.4-.6,4.8-.9,7.2-.2.8-.6,1.6-1.1,2.2-1.5-1.3-11.7-4.5-12.1-3.6-.6,1.7-1.4,6.2-.5,6.6l7.5,1.6Z"/>
    <path class="st201" d="M599.5,354.2c-.7.1-1.2-.1-1.8-.4-1.3-.5-7.6-4.5-8.9-5.5s-.9-.4-.8-1.1,2.7-3.2,3.3-4c5.3-7.8,12.8-18.7,15.9-27.3s-.2-.8.8-.7c1.3,1.1,10.8,6.4,10.8,7.4-.7.8-1.7,1.2-2.3,2-3.7,4.6-8.2,12.3-11.3,17.5s-5.4,7.8-5.6,12Z"/>
    <path class="st320" d="M298.6,414.2c.5,7.6,2.7,9.2,6.7,14.9,3.1,3.8,6.2,7.6,9.6,11v1c4.9,5.1,8.4,11.2,11.8,17.4s6.5,11.9,4.6,17.5c-2-3.1-3.9-6.4-5.2-9.7-1.9-3-3.8-6.1-5.6-9.2-3.7-6.5-7.9-13-13.6-17.8l-.6-1.2c-2.5-1.4-5-2.9-7.3-4.6.2-.3.4-.5.3-.7-1.5-4-2.1-7.6-2.3-11.8s-.2-10.6,1.7-6.9Z"/>
    <path d="M652.3,391.7c1.2,1.2,5.5,3.8,7,3.8h10.6c3.4,0,9.9,9.8,11.4,12.6,4.8,9.2,6,19.3,4.7,29.6.8.2,1-.3,1.4-.7,3.7-2.8,11.6-14.9,12.8-19.3s.8-6.6,1.1-6.8c1.8-1.3,2.4,5.1,2.4,6,.4,6-.8,10.9-2.4,16.6,3.5-.6,6.7-1.1,8.9,2.4s1.6,5.5,2.9,5.3,9.8-10.8,12.2-11.1c-.7,1.4-5,4.3-6.2,5.8l.3,1.1-4.8,5.9-1.2.2c-.5.7-.9.9-1.4,0-.7.4-1.7.2-2.9-.5-.4-.1-.4-.3,0-.5-.3-.1-.3-.3,0-.5.6-1,1.1-1.9,1.4-2.9-.8-.2-1.3-.4-.5-1-1.2,0-1.7-1-1-1.9-1,.9-1.4.1-1.4-1-.8.5-2,.6-3.4.2-1.8.5-3.3.4-4.3-.2-.6.1-.7.1-.5-.5l-.3-1.1c2.2-4.6,2.7-10,2.8-15.1-2.7,8-8.2,15.6-14.4,21.2l-1.1-.2-1.1.8-.4-3.7c-.8-1.2-1-2.8-.6-4.8-.1-2.2,0-4.3.6-6.2-1.4-3.6-2.6-7.4-3.6-11.3-1.9-3.9-3.6-7.8-5-11.8h-.8c-2.5-5-7.2-5.5-12.2-5.8-1,1.6-5.2.7-6.8,0s-4.8-2.6-4.2-4.3v-.5Z"/>
    <path class="st273" d="M661.9,462.7c2-12.2,8.2-23.5,11.7-35.1,2.1-7.1,3.3-11.9-2.5-17.4-6.3-6-15.9-6.1-20.5-14.5s-3.6-7.7-2.5-8.7,2,1.9,2.5,2.6,1.3,1.7,1.8,2.2v.5c-2.4-.6-.4,2.7.5,3.9,3.9,4.1,8.7,7.3,14.6,9.4,3.4,1.9,7.2,4.3,7.9,8.1-1-1.7-1.8-6,0-7.2-1.5-1.5-4-5.4-3.4-7.4,3,.6,4.4,4.7,3.8,7.7,1.4,0,1.9,2.4.5,2.9.4,2.2.5,4.5,0,6.7.3.3.5.6.5.9-.1,3.3-1,6.8-1.8,10-3.8,10.9-7.5,21.9-11.2,32.8-.2,2.6-.8,4.8-1.9,6.7"/>
    <path class="st72" d="M344.2,401.3c-.7.4-.9.3-.5-.5v-1.2c2.3-1.8,4.2-4.2,5.4-7-4.1,4-9.3,5.6-15.8,4.9-1.6.6-3,.5-3.9,0-2.3,1-3.5,2.5-4.9,4.7-3.6,5.7-6.1,12.1-7.7,18.6-.7,0-1.1.5-1.3,1.6,0,.7.2,1.2.8,1.4-.6,5.4-1.1,11.2.4,16.5l-.7.9c-.2.2-.6.2-1,0-3.3-4.2-6.4-7.4-9.6-12,3.2,3,5.4,7,9.1,9.6-.4-4.8-.9-10.3-.5-15.1s7.1-22.2,12.7-26.1,10.9-.6,16.1-2.7,8.3-8,8.9-7.9c1.1.2.4,3.2.2,4-1.2,4.6-3.9,7.7-7.6,10.4Z"/>
    <path class="st70" d="M294.7,447.4c.2.6,0,.8-.5.5-2.9,1.6-4.5-4-1-3.8,1.4-.4,1.5,2.3,1.4,3.4Z"/>
    <path class="st70" d="M292.8,439.2l.8.7c-1.1,2.3,2.3,1.3,2.1-.7-6.4-1.2,3.5-4.3,2.9-.4-1.3.4-1.3,1.3,0,2.8l.8.6c-.6,3,4.7,1.4,1.3-.5v-1c-.1,0-.6-1.1-.6-1.1-5.8-3.4,1.5-5,1.9-.3,1.1,1.6,3.1,3.3,1.4,0-.4-.1-.4-.3,0-.5.5-.9,2.6,0,2.9,1,.7-.5.9-.2.5.5.7,1.4,0,2.5-2.1,3.3,1.1,2.2,2.2,1.1,2.9-.7.6-1,1.2-.9,2-.2.6-.3,1.3.3,1,1,.3,1.3.3,2.3,0,2.9q-.8.6,0,0c.6-.7,1.4-.7,1.9,0,.7-.5,1.4.2,1,1-.4.9,0,1.8,1.4,2.9.3,1.1.9,2.1,1.9,2.9v.9c.8,1.5,1.6,2.1,2.5,1.9,1-.3,1.5,1,.5,1.4-.2,1.1.2,1.9,1.2,2.3l.2,1c0,.8-.5,1.3-1,.5-.6.3-1.3.2-2.2-.3-1.4,1.1-2.6,1.4-3.5.8-.6.4-.9-.4-.5-1l.4-1c2-.3,3.7-2.2.9-2.8l-.4-1c-.3-1.4-1.1-2.5-2.4-3.4-.1-4.4-5.5-2.7-1.3-.2v1.1c-.2,1.9.1,2,2.1,2l.7.9c.2.7-.2,1.3-1.1,1.9.9,1,1.1,1.8.6,2.5,0,.4-.2.4-.5,0-.1,1.4-3.7,1.6-4.3.5v-1.1c2.8-1.4,2.1-3.3-.8-3.3l-.6-.9-.4-.5c1.7-1.3,1-2.4-2-3.3v-1.2c2.1-1.4-.5-2.1-1.8-.7l-1-.5c-.4-.1-.4-.3,0-.5v-1.1c4.3-3-2.9-3.4-.4-.3l-.5,1c.6.7.3.9-.5.5-.7.1-1.5-.3-2.3-1.4-1.4.5-2.4.5-3,0-.4-.1-.4-.3,0-.5v-1.1c4.2-1.4.8-4-1.9-2.2-.9-.3-1.7-1-2.4-1.9-.5,0-.6-.2-.5-.5v-1.2c.8-.5.4-.5-1.4-.2v-.5c.4-.9.5-1.8,1.4-2.4,1.3.3.9-.1,0-1,0-.4.1-.4.5-.5.7-.6,1.3-1,1.9-1.4,1.8,1,1.4,3.7,0,4.8Z"/>
    <path class="st155" d="M325.9,400.8l.9.7c-.8,3.2-1.2,6.4-1.2,9.6,3.8-4.1,8.5-7.2,14.2-9.1,1.5-1.1,2.8-1.5,3.9-1.2l.5.5c-5.9,4.1-17.9,7.2-19.2,15.6s8.2,28.8,11,37.6c1.6,2.5,2.8,5.2,2.9,8.2-.2.9-.2,2.2-.5,3.4h-1c-5.2-15-9.9-30.2-13.9-45.6l-1-.7c-.6-3.8-.2-12.8,1.2-16.3s1.2-2.7,2.2-2.7Z"/>
    <path class="st218" d="M625.4,314.8c-2.2.4-14.1,3.5-13.4-.6,4.7-2.9,12-8.4,13.4.6Z"/>
    <path class="st210" d="M289,440.2c1,0,1.4.6,1.4,1.4.2,0,.4.3.5.5,0,1-.8,1.1-1.6,1.2.6,1.1.8,1.9-.3,2.7.5,1.5.7,1.5.5,0-.7-1.3.5-2.1,1.8-1.1s1.4,5.4-.4,5.4c-1.2.4-1.6,1.1-1,2.1l-.9.8c1.2.1,1.2.5,0,1,1.2,0,2,2.1,1,2.9.4.1.4.3,0,.5l.9.5c-.6,1.6-.3,2.7,1,3.3.4.1.4.3,0,.5-.5,1.1-.7,1.9.2,2.8l-.2,1c.4.1.4.3,0,.5.5.8,1.5,3.2.5,3.8.4.1.4.3,0,.5.8.6.5,1.5-.5,1l-1.4-1.4c-2.5-7.8-4.5-15.8-3.8-23.9-.5-1.4-.5-2.6,0-3.5,0-.3.3-.5.5-.5.3,0,.8.7,1.2,0s.3-1.5.7-2.4v.5Z"/>
    <path d="M290.9,435.8c1.5-3.6,4.8-3.2,8.2-2.4-.5-3.1-2.1-6.2-2.4-9.3s-.2-10.6.5-11.6.8-.8,1.5-.7c0,.8,0,1.6,0,2.4l-1-.7c-.6,5.9-.5,13.8,1.9,19.2s5.2,4.2,6.8,5.5v.5c-.8.3-2.8-.4-2.9-1.4l-1,.5c-2.3-2.4-4.8-3.2-7.2-2.2l-2.4-1.2c-.4.4-.4,1.2-.6,1.3-.4.3-1,0-1.3.1Z"/>
    <path class="st117" d="M485.8,322.1c7.5-10.8-1-24.5,1.4-36.5,1.1.4.1,2.4.2,3.2.3,8.2,2.9,17.4,2.2,25.4s-1.2,5.8-3.9,7.9Z"/>
    <path class="st117" d="M557.8,300.5c-.5,4.4-2,1.7-4.8.7s-5.5-1.4-8.1-2.2l-1,6.2,7.7,1.9-8.6-1.5,1.5-7.1c.8-.7,11,2.3,12.2,3.8l1.2-1.9Z"/>
    <path class="st196" d="M290.4,436.3c3.7-.7,1.3,2.9,0,1.9,0-.3,0-.6,0-1s0-.7,0-1Z"/>
    <path class="st201" d="M339.4,644.6c-.8-.6-5.4-6-5.3-6.5,1-1,2.5-1.3,3.6-2.2,5.2-4,17.2-15.2,20.8-20.5s.5-1.9,1-2.4c.8-.6,7.6,6.3,7.7,7.7l-6.7,18c.6.7,14.9-7.5,17.5-7.2s6.4,5.6,7,6.5.8,1.2.4,1.7-2.8,1.3-3.8,2.2c-4.5,3.8-15,14-18.5,18.5s-1.8,2.8-2.2,4.3c-.6.4-8.4-7.2-8.6-8.6,4.6-2.8,8.5-6.3,11.6-10.5-3,.6-5.9,1.6-8.9,3-5.5,2.6-8.8-.9-6-6.3,1.6-3,2.7-5.9,3.3-8.9-4.6,3.1-8.5,7-12,11.5l-1-.2Z"/>
    <path class="st201" d="M432,684c-.3,1.3.9.9,1.7,1.9,4.9,6.7-1.3,16-9.1,15.8s-21.3-7-21.4-8.4c1.6-1.9,2.6-3.6,3.8-5.8,2.4-4.7,5-11,7-16s3.5-7.4,3.1-11.5c.7-.9,18.9,8.1,20.3,9.6,4.7,5.2,1.6,14.2-5.5,14.4Z"/>
    <path class="st201" d="M473.3,680.6c-.1-.6-.7-1.1-.5-1.9,3.2,0,6.7-.5,9.6,1.2l9.8,18c1.3,0,.6-15.6.4-17.3.5-.7,2.5-.5,3.4-.5,1.8.1,4.6.2,6.3.5s.9-.3.7.7-1.2,2.4-1.4,3.9c-1.5,9.5-.8,20.9-1.9,30.7,0,.5,0,1.1-.5,1.5-2-.1-5.7.2-7-1.2-2-2-6-10.4-7.7-13.5s-2.3-4.4-3.1-6.7c-.8-.1-.4.6-.5,1.2-.2,4.2-1,9.5-1,13.4s1.2,4.8,1,5l-9.8-.5c-.6-.1-.2-1-.3-1.5,1.7-10.9,3-22.1,2.4-33.1Z"/>
    <path class="st201" d="M642.2,612l1.7,3.4,23.3,22.8c-3.5,6.7-9.1,4.2-15,2.9s-8.8-2.6-13.3-3.2l11,10.3,4.3,2.9c0,.7-6,7.1-7,7.4s-.7-.3-.8-.6c-1.2-1.7-2.1-3.5-3.5-5.2-3.4-4.1-9.9-10.4-13.9-13.9s-5-4-7.9-5.5c0-.7,6.4-7.2,7.5-7.4l19.3,4.7-12.9-11.8c-.1-.6,6.1-7.7,7.2-6.9Z"/>
    <path class="st151" d="M511.2,716.6c-.2-1.7.5-3.3.5-5,0-5.6-1.8-23.4-3.5-28.2s-.9-1.8-1.3-2.7c9.4-.5,21.1-5.4,28,3.4,4.5,5.6,5.6,17.1,2.5,23.5-4.5,9.3-17.4,8.6-26.2,9.1Z"/>
    <path class="st236" d="M612.4,640.4c15.5-2.9,31.7,21.9,18.1,33-16.9,13.8-38.6-16.7-24.9-29.3,1.5-1.3,4.9-3.4,6.8-3.7Z"/>
    <path class="st201" d="M467.5,685c-.9.8-1.5-.9-2-1.1-1.3-.6-9.1-3.3-9.9-2.7l-1.4,7.6,7.9,1.9-1.2,6.3-8.6-1.9c-.3.2-1.9,6.9-1.9,7.5s.2.7.7,1c3,1.4,9.4,1.9,12.6,1.1-.7,2-.8,8.8-3.5,8.6-2.6-1-22.8-4.9-22.9-6.4,1.3-1.6,2-3.5,2.7-5.4,2.1-5.9,4.6-15.5,5.7-21.7s.7-4.8.2-7.7l22.6,5c1.1.7-.7,7.7-1,7.9Z"/>
    <path class="st201" d="M575.4,664.7c.2-.1,1-2,1.8-2.3,1,0,4.7,9.4,4.5,10.3-.7,2.8-4.9-.8-5.9-1.2-12.3-4.4-5.8,16.4-.7,20.9s6.5,2.4,8.9-.7,3-8.7,5.4-4-1.3,11.6-7.2,13.7c-20.4,7-32.2-29.2-13.6-35.6s6.5-.8,6.9-1Z"/>
    <path class="st37" d="M610.6,685.9c-1.7.7-11.6,7.2-12.5,6.2.4-4.3-2.6-8.6-4.6-12.5s-5.7-11.6-8.5-15.5-3.7-3.5-3.3-4.1c1.8-.3,10-6.3,11-5.5.8,1.2.3,2.7.7,4.1.5,2.1,3.8,7.2,5,9.4,3.3,6.2,6.9,13.3,12.1,17.9Z"/>
    <path class="st235" d="M552,673c-.2.6-.4,1-.5,1.7-.3,3.7,5.5,25.9,7.3,29.7s3.8,2.9.7,4.1-10.4,2.8-10.8,2.4c.3-3.1-.4-5.8-1-8.8-1.2-5.7-3.3-13.4-5.1-18.9s-2-4.5-3-7c.2-.6.7-.6,1.2-.7,1.2-.4,10.8-2.8,11.3-2.4Z"/>
    <path class="st49" d="M398.8,649.8c-.4.4-1.1.3-1.6.8-2.8,2.5-15.3,20-16.7,23.4s.2,4.7-2.7,3.5-9.2-6.3-9.1-7.2c.7-.9,2-1.2,2.8-1.9,2.9-2.6,15.3-20.4,16.8-23.9s.5-1.8.5-2.7c1-.9,7.8,4.3,8.9,5.3s2.3,1.7,1.1,2.8Z"/>
    <path class="st197" d="M705.1,524.6c.2-.3.7-.7.9-.6,3.9,2.8,6.3,7.1,7.2,11.8.6,5.7,1.9,11.1,3.8,16.2l-.3,1.3c-.5-.5-1.1-.8-1.4-1.4-1.1-2.5-2.1-4.3-2.7-7.2s-1.1-10.2-2.1-11.7-7.2,1.2-8.5,2c-10.3,6-16.8,19.3-26.5,26.3-.6,1.1,2.6.8,3.1.7,8.1-.4,15.5-3.4,21.8,4.1,5.7,6.8,5,16.4-.5,23s-22.4,10.6-24.5,23.3c-1.6,1.9-1.5-5.4-1.4-6,1-9.7,12.3-13.6,11.5-24.5-.4-6.1-3.5-6-8.9-5.5-9.2.8-19.2,10.3-28.9,11.4l-8.2,1.2c.3-.5.6-1,.9-1.5l.9-1.2c9.4-1,18.2-4.1,26.4-9.2,4.4-2.2,9.3-3.2,14.1-3.2-7.8-10.1-21.8-6.8-31.9-2-.9,0-1.2-.5-.8-1.3,0-.1,0-.4,0-.5,15.2-10.8,43.5-5.8,37,17.8l.6.8-2.3,4.3c-.3,0-9.4,12.3-7.8,11.6,4.7-4.9,10.2-8.9,16.5-12.2,4.3-2.8,8.3-6.6,9.2-11.8l1.1-.9c-.2-3-1.1-6-2.2-8.8-3-6.8-8.6-8.4-15.7-8s-17.7,1.5-26.4,2.9c-3.1,1.1-6,2.1-8.9,2.9.3-.6.7-1.3,1-1.9,6.7-3.6,14-5.5,21.9-5.6,7-6.2,13.4-12.9,19.4-20.3,4.3-4.8,9.6-9,16-10.3-1.4-3.2-4.8-5-8.2-5.5l-8.1.4-.7-.9c1.2-1.2,4.2-1.8,6.1-2,2.7-.3,6.5-.7,7.8,2Z"/>
    <path class="st333" d="M307.2,524.6l-1,.8c-5.2-1-11.7-.2-14,5.1,6.9,2,12.6,6.7,17.4,12.1,5.3,6.7,11.1,12.9,17.4,18.5l2.5.6c6.8.6,14.9,1.3,20,6.3.4.9,1,2,1.4,2.9.4.9.1,1.4-.8,1.3-10.3-5.1-24.5-8.1-32.1,2.6,3.4-.3,11.3,0,13.8,2.4s.4.9.4,1.4c0,.3-.3.3-1,0-7.9-2.3-18.4-5.6-16.8,6.9s14.6,16.7,11.7,25.7-2.5-2-2.9-2.9c-4.1-10.1-20.8-12.2-26-23.4s-1.7-16.5,4.7-20.9,12.3-2.1,19.4-1.7,3.1.4,2.7-.7-7.9-8.2-9.4-9.8c-5.2-5.8-9.8-12.5-16.7-16.4s-6-2.9-7.3-2.8-1,.9-1.2,1c-.2.1-.6-.2-.5-.5-1.3-1.8,2.1-7.3,4.3-6.7,1.8-3.2,4.6-3.7,8.3-3.5s5.2.4,5.6,2.1Z"/>
    <path class="st122" d="M608.2,632.6c.8,1.9-2.3,11.1-4.6,10.6s-1.4-6-1-7.2,3.8-3.6,5.5-3.3Z"/>
    <path class="st157" d="M332.4,578.4l1.4-.5c8,4.6,16.4,7.5,25.3,8.6l1,1.5c.2.3.7,1.1.8,1.4-11,.7-20.3-5.7-29.5-10.9.3,0,.7,0,1,0Z"/>
    <path class="st117" d="M470.9,713.8c-.5-2.1.3-2.3.4-4.1.5-5.3.7-10.6,1.5-15.8l.5-13.2c1.4,5.9-.2,20.1-1,26.6s-.7,4.4-1.4,6.5Z"/>
    <path class="st334" d="M286.6,442.6c1.8,3,.7,6.9,1,10.3.5,6.3,2.6,12.5,4.3,18.5.7,1.2,1.4,2.5,2,3.8,1.3,6.9,3.9,14,7.2,20.1-.2,1.7.5,3.2,1.8,4.3.6,2.4,1.3,4.7,1.9,7.1-.2.7-7.9-5.1-7.4-6.8-5.5-8.5-10.5-17.4-14.8-26.7l.2-1.7c-1.5-4-2.8-8.7-3.6-12.9-2-10.9-.6-23.5-11.3-30.3,6.4.9,15.5,9,18.7,14.4Z"/>
    <path class="st96" d="M275.5,480c6.1,8.3,12.9,14.6,21,20.9s.6.2,1,.2c2.2,2.4,4.6,4.2,7.2,5.4,2.7,2.9,5.8,5.6,9.3,7.6,1.3,1.4,2.6,2.9,3.8,4.3,1.7-.5,5.3,3.2,4.8,4.8,1.8,1.2,3.8,3.2,4.9,5.2,1.6,1,8.6,9.4,7,10.8s-.4.3-.6.3c-8.3-7.9-18.5-14.1-29-17.7-2.5.1-4.3-.6-5.2-3.1-6.4-7.3-12.2-15.4-16.8-23.8-2.4-3.9-5-8.9-7-13s-1.2-1.6-.2-1.9Z"/>
    <path class="st269" d="M281.8,473.3l.7-.2c4.5,9.5,9.6,18.6,15.3,27.3,0,.3-.1.6-.3.7-2.1,1.5-23.3-20.4-23.9-25.4-3.1-4.8-7.7-12-10-17.2s-.7-1.6-.6-2.5l5,6.7c3.7,3.6,10.5,6.7,13.7,10.5Z"/>
    <path class="st316" d="M293.3,470.9c.8.2,1.1,1,.9,2.2,1-.1,1.8-.1,2,1.1,0-1.3.6-1.2,1,0,1.2-.7,1.6-.2,1,1,1.1.1,1.4.5,1,1-.2.4-.3.4-.5,0-.3,1.3-.6,1.3-1,0l-1.1.3c-1.4-2-1.9-.5-.7,1l-.6,1c1.1.3,1.2.6.5,1,1.5.4,2,1.7,1,2.9,1.2.1,1,.3,0,1,1.1.4,1.7,1.5,1.9,3.4.4.1.4.3,0,.5,1,1.2,1.5,2.3,1.4,3.4,1-.4,1.2-.2.5.5.6,1.2,1.1,2.5,1.4,3.8.4.1.4.3,0,.5.6,1.3,1.2,2.6,1.9,3.8.4.1.4.3,0,.5.8,1.2,1,2.3.5,3.4,1.2.2,1.6.5,1.4,1,.2,1,.7,2,1.4,2.8l-.4,1c1,.2,1.4.5,1,1,1.6,0,3.6,1.8,3.8,3.4.3-.5.8-.3,1.4.5.7-.5.9-.3.5.5,1.5,0,2.3.4,2.4,1,.2.6-.3.9-.4.7-.1-1.1,2.7,1.3,1.8,2.2,2.5,0,2.6,2.3.5,1.4-14.4-13.7-30.8-20.5-42.2-38.4s-1.9-2.6-2.4-4.1l.5-.3c5.8,9,12.1,16.3,20.4,23s2,1.8,3.1,1.9c.4-.4-4.3-6.9-4.9-7.8-2.9-5-7.3-15.8-10.5-19.5l1-1.9c2.2,6.1,5.9,13.2,9.2,18.9s7.1,12.3,12.4,16.2c-2.3-7.3-5.8-14.3-8.4-21.6s-2.8-9-4.1-13.4c.4-.1.5-.6.5-1,.6-.3,1.3-.3,1,.5Z"/>
    <path d="M304.8,521.8c.3.4,0,.5-1,.5-1,.4-2.2.5-3.7.3-3.2.4-6.2.8-9.3.7.1.4,0,.7-.2,1-13.8,2.8-14.5,11.5-12.7,24,.4,2.9,0,5.1-1.5,6.7l-.5-.5c1.6-7.6-2.2-15,.6-23.1s16.3-9.7,23.4-10.5c-.5-2.9-3.2-4.4-4.8-6.5-4.9-6.2-8.9-12.7-13-19.4h.5c3.8,6.2,13.4,20.3,18.5,25s2.3,1.4,3.6,1.9Z"/>
    <path class="st318" d="M704.2,513.6c0,.1-.4.3-.5.5-2.2,1.9-3.3,4-4.4,6.4-12.8,3.8-24.2,9.9-33.7,20-1.9,1.3.6-5,1.1-5.8,1.8-2.9,4.6-6.2,7.2-8.4,2.8-3.3,5.8-6.3,9.1-9.1l1-.2c1.3-3.4,4.5-5,7.7-6.2,1.4-2.1,3.1-3.6,5.1-4.5,1.7-1.8,3.6-3.1,5.5-4,3.8-3.2,7.6-6.3,11.5-9.3,4.4-4.3,7-7.8,10.6-12.6s1-1.5.9,0c-3,5.3-5.7,10.9-8.9,16s-8.3,11.5-12.2,17.3Z"/>
    <path class="st194" d="M713.3,492.5c-1,1.8-11.2,10.4-11.8,9.9s-.3-.4-.4-.7c6-8.7,11.3-17.8,15.8-27.3,1.2-1.6,3.2-3.1,5-4,6.9-5.9,8.7-6.5,14.5-14.1s1-1.5.9,0c-.9,1.6-1.3,3.4-2.1,5.1-5,10-13.9,23.4-21.9,31.2Z"/>
    <path d="M713.3,443c.4.2.7.5.7.8-.5,7.3-1.1,14.2-3,21.6-3.5,13.2-8.4,25.8-13.4,38.1,10.8-13.3,19-29.2,22.4-46.2,2.1-14.5,3.9-21.6,5.3-21.6.3,0,1,.4.7,1.4-1.1,3.1-.9,3.8-1.4,6.2-1.2,5-2.6,14.1-2.7,14.6-.2,2.2-1.1,5-1.7,7.2-.6,2.3-2,4.9-1.9,7.2,1-.9,2.1-1.6,3.1-2.4l.5.5c-6.7,5.7-8.7,12.9-13.1,20.3-2.1,3.7-4.4,7.4-7.1,10.7l.2.7c3.6-3.4,7.8-6.2,11.3-9.6l.5.5c-7,6.8-14.6,11.8-22.1,17.8-.7.5-.9.3-.5-.5-.5-1.2.3-1.6,1.4-1.4-.6-.4-.3-.7,1-1l-.5-.9c.9-.9,1-1.7,1-2.9-.7-.7-.4-1,.5-.5.4-1.2,1.2-2.7,1.9-3.8-.7-.4-.4-.8,1-1-.6-.6-.4-1.6.4-2.8l-.4-1.1c-.4-.1-.4-.3,0-.5,2.5-1.7,2.4-2.7-.2-3.1-1.3-2.2-1.1-3.3.6-3.1.1-.4.3-.4.5,0,1.5,1.8,2.2,1.6,2.4-1-.5-.5,0-.8,1.4-1-.4-1.1-.7-3.4.5-3.8l-.2-1.1c.6-.7.8-1.7.5-3,1.4-.4,1.9-1.6,1.6-3.6-.4-.2-.4-.3,0-.5,1.8-2,2-2.9.4-2.8l-.4-1.1c-.8.7-1.1.4-.5-.5.3-.8.6-1,1-.5,1.4-.4,2.2-1.1,2.4-2.4l1-.5c-.6-.3-.8-.7-.5-1,.2-1.3.5-2.6,1-3.8-.4-.1-.4-.3,0-.5l.4-1.1c-.7-1.8-.6-3.1.5-3.9,0-1.3.4-2.1,1-2.7-.4-.1-.4-.3,0-.5-1.3-.6-.9-2.7.5-2.9-.9-.6-.9-.9,0-1-1.1-.7-.9-2.7.5-2.9-1.3-.5-1.3-1,0-1.4-.9-.6-.9-1.3,0-1.9.2,0,1.3-.7,1.4,0Z"/>
    <path class="st51" d="M705.6,522.2c2.6.5,10.6,3,12.6,4.4,8.4,5.6,4.1,16.6,4.7,24.6.3,4.2,2,7.7,3.8,11.3-4.6-1.6-6.9-5.9-10.1-9.1-4.7-7.6-2.4-18.7-7.9-25.4-.6-.8-2.8-2.9-3.6-3.4-1.9-1.3-2-2.4.5-2.4Z"/>
    <path d="M699.4,434.4l.5.5c-.1.9-.8,1.7-2.1,2.2-1.3,1.5-2.6,2.4-4.1,2.6-.4,1.2-1.7,3-2.9,2.4.5,1.3.1,1.8-1,1.4.7,1-.9,2.5-1.9,1.9.7,1.3.5,1.6-1,1.4.7.8.3,1.2-.4,1.8,1.5.7,2.2,2.5.4,3,.3.1.3.3,0,.5-.2.4-.3.4-.5,0-.2-.1-.2-.3,0-.5-1.2-.9-2.3-.4-3.4,1.4.8.4.6.6-.5.5.2,1.1-.7,2.8-1.9,2.4.9.9.8,1.1-.5,1,1,1-.2,2.5-1.4,1.9.2,1.6,0,2.2-1,1.9.8,1.3,0,2.4-1.4,2.4.2,1.8-.1,2.5-1,1.9l.4.6c-.5.9-1.1,1.8-1.8,2.8.4.1.4.3,0,.5-.7.9-1.1,1.9-1.3,3.1l-1.1.3c.8,1.4-.3,3.8-1.9,3.8,1,1,.9,1.3-.5,1.4,1.3.6.6,2.7-.5,3.4.4,0,.4.3,0,.5,0,1.3.1,2.4.5,3.4.9-.6,1.2-.4.5.5-.4,1-.4,1.8-.1,2.6l-.8.8c.7.4.3.8-1,1,1.1.8,1.1,3.5,1,4.8.7.8.4,1-.5.5-.6.4-.5.9.3,1.6-.1,1.1.1,1.7.6,1.7.6-.7.9-.4,1,.5.7.5.4.8-1,1,0,1.3,0,2.5,0,3.8.7.4.4.7-1,1,.7,1,.8,3.8,0,4.8.9,1,.8,1.1-.5,1,1.4.7,1.4,3.3,1.4,4.8.7.7.4.9-.5.5.2,1.8,0,3.4-.5,4.8.6.1.6.9,0,2.4,3.3,2.8,5.8,2.7,7.7-.5-.5-.5-.2-.8,1-1-.7-1.2-.4-1.8,1-1.9.5-.2.6.2.5,1,1.1-1.5,2.2-2.3,3.4-2.4-.5-.6-.2-.9,1-1-.2-1.3,0-1.4,1-.5.7-.6.9-.4.5.5-5.3,4.7-14.8,14.9-18.2,21s-1,1.6-.3,2.1c5.6-5.7,12.9-11.4,20.1-15s9.7-2.8,12.3-4.5,3.5-5.4,6.3-6.5c-1.4,2.1-2.9,3.6-4.3,5.5s-1,1.9-1.4,2.2l-.2.7c-3.6.9-7.3,1.8-10.8,2.7l-.9,1.5c-10.2,6-19.3,13.3-27.3,21.9l-1.1-.3c.5-1.6,1-3.2,1.4-4.8.3-.1.6.2,1,1,2.4-4,4.7-7.7,4.7-12.6l1-.8c-.1-17.8,0-35.6.2-53.5l1.7-11.8c-.2-.5-.4-1.1-.5-1.6-.9-4.5,2-18.1,3.2-23.4s.4-1,.6-1.5.6-.9,1-1.4c1.1-.9,1.6.2,1.5,1.4-1.4,6.8-2.4,13.6-3.1,20.5,4-7.2,8.4-14,13-20.4-.2-1.5.2-2.4,1.1-2.8,1.2.9-.4,3.3,1.4,2.9v1.4c-6.6,8.9-13.5,18.4-16.4,29.3,5.5-10.5,11.9-21.1,20-29.8s6.3-5.8,9.3-5.7Z"/>
    <path class="st303" d="M698.4,521.8c2.4-.2,4.8,0,7.2.5-1.3.6-1.2,1.3-.5,2.4-4.7-2.4-9.2-1.2-13.9,0,.4,1.8-4.5,2.7-3.8.5,2.7-1.2,8.2-3.1,11-3.4Z"/>
    <path class="st148" d="M293.3,526.1c-2.3,2-3.3,4-4.3,6.7-3.9,10.3-1.1,18.6-11.3,26.9s-3.1,2.5-4.1,2.2c2-2,2.3-4.4,2.9-7,1.6-7-.4-11.5,0-18s1.9-8.3,5.8-10.5,7.8-3.1,8.6-3.2l.8.2c2.9-.9,5.7-.4,2,2l-.3.7Z"/>
    <path class="st173" d="M718.8,436.1c.2-.2.4-.4.6-.5,2.3-1.2,3.6-3.3,5.9-4.8s4.5-2.6,6-2.7.8-.1.7.5c-2.7,1.4-5.4,4.5-6.7,7.2-2.7,5.7-2.8,13-3.8,19.2-3.2,18.5-11.4,33.9-22.5,48.7-.5,0-2.4,2.7-2.9,2.1s5.5-14.4,6.2-16.5c3.7-10.5,8.6-24.1,10-35.1.4-2.7,0-9.2,1-11.2s4-5,5.5-6.9Z"/>
    <path class="st101" d="M599,375.4c85.6,69.2,79.6,196.2-11.4,257.7-65.3,44.1-151.5,32.6-204.4-24.9-52.3-56.7-57.4-137.7-12.7-200.6l.8.8c-1.1,3.2-.4,5.1,2,5.7l1,1.2.9-.8c3.2.7,6.7-1.4,7.2-4.7-6.9,10-11,.4-3.2-5.5s8.4-4,10.1-1.1c2.7,4.8-7.6,16.2-11.1,18.6-5.8,4.5-10.9,9.6-15.5,15.2l1.6-.7c2.4-1.6,6,0,7.4,2.4l1-.4c.8-1.8,1.7-2.3,2.7-1.5l-.2,1.7c-21,41.9-18.6,91,4.1,131.7,48.9,82.1,158.7,95.7,224.1,24.3,45-49.2,47.5-122.7,9.2-176.5l-1.2-.8c-6.1-8.2-12.9-15.7-20.7-22.4l-.6-1.3c.9,0,1.8.3,2.6.7l8.2,6.3c4.5,2.1,7.2,4.5,9.4,8.8.3,0,.6,0,.8.2s.3.5.3.5c-4.5-12.1,3.4-11.8,10.6-5.5-1.4-1.3-2.1-2.5-2.1-3.8-.4-.5-.6-1.4-.5-2.5-3.7-.5-5.2-1.8-4.4-3.7-4.3-4.4-8.6-9-12.7-13.6-2.1-.7-4.4-3.7-3-5.6Z"/>
    <path class="st86" d="M599,375.4l1.6,3.7c4.1,1.7,5.3,4.6,7.5,7.6s7.1,5.4,7.6,7.8-.5,1.8-.4,2c.3.5,6.9-.7,4.3,4.3l-.9.7c-7.8-4.1-11.1-.3-8.3,7.5l-.5.5c-2-1.2-2.8-3.3-4.6-4.8s-3.9-2.1-5.7-3.5c-3.4-2.5-6.6-5.2-9.9-7.6l-1.6-.4c-61.2-50.5-153.2-39.2-200.1,24.6-1.6,2.6-3.5,4.7-5.7,6.5-.8,2-2,3.4-3.6,4.3l-1.2,3.9c.2,1.4-1.1,3.7-2.4,4.3-1.2.3-1.4,1.7-2.1,2.3s-1.4.4-1.8.8c-.6.6,0,1.8-.9,1.7.9-4.9-2.6-4.6-6.2-5.3-.1-.5-.3-1.1,0-1.5,2.4-3,5.2-5.5,8.1-8h1.4c2-.7,3.3-1.3,3.8-3.4v-1c4-3.1,15.2-15.1,11.8-20.5s-17.6,6.7-14.5,12.5l-.6.9c-5.2-1.2-4.7-2.8-3.8-7.7,52.8-74.3,156.9-90.1,228.5-32.2Z"/>
    <path class="st323" d="M691.2,524.6l8.9-.5c4.2.6,8.1,3,9.4,7.2-11.7,1.9-18,12.5-25.4,20.4s-9.3,9.8-11.1,10.5-7.2.4-9.7.9c-3.7.6-7.1,2-10.5,3.5s-1.2.8-1.9.2c2.6-5.8,5.2-12.6,7.2-18.7l13.7-12.9c4.9-3.4,10.2-7.7,15.6-10.1.7.9,2.6-.2,3.8-.5Z"/>
    <path class="st5" d="M307.2,524.6l.4-.6c2.8.8,5.5,1.8,8.3,3,6.3,2.4,12,7.2,17.1,11.7s.7.3,1.1.3c1.7,1.5,6.7,7.1,7.5,8.8s-.4-.6.2-.5c2,6.5,4.9,14.5,7.7,20.6-3.6-1.7-7.8-3.5-11.7-4.4-3.1-.7-9.2-.6-11.3-1.6s-3.6-3.1-4.1-3.6c-8.6-8.1-15.2-19.8-26.1-25.2-1.9-.9-3.7-1.3-5.5-2.1,3.3-6.7,9.8-7.6,16.6-6.2Z"/>
    <path class="st71" d="M350.9,570.7c2.8,5.7,5.8,11.8,9.2,17.2-5.4-.3-10.3-1.6-15.3-3.6-4.4-1.8-8-4.5-12.6-5.8-4.5-3.1-10.5-3.4-15.8-2.4,1.1-3.4,4.9-6.5,8.2-7.9,8.1-3.5,16.8-.9,24.5,2.4s1.6,1.2,1.9.2Z"/>
    <path class="st191" d="M649,570.7c.3,1,1.4,0,1.9-.2,7.1-3,15.1-5.5,22.8-3.1,3.9,1.2,8.3,4.2,9.8,8.2-10.7-2.4-19.7,5.6-29,9.1s-9,2.5-14.2,3c3.2-5.2,6-11.4,8.7-16.9Z"/>
    <path class="st143" d="M703.2,579.8c-1.2.2-1.8-1.1-1.6-3.9-3.7-1-6-.4-9.1,1.7-2.4-.2-3.6.8-3.7,2.8l-1.4,8.2c-1,.9-2.1.6-1.4-.6,3.9-23.5-20.8-26.8-37-17.8.3-.6.8-1.1,1-1.4l8.7-3.5c8.3-1.7,18-2.8,26.5-3.2,12.3-.7,18.3,5.6,18,17.8Z"/>
    <path class="st52" d="M332.6,475.2c2.3,9.9,1.7,20.3,1,30.2.1,5.8.2,11.7.3,17.8.1,7,1.2,13.8,5.1,19.8v.7c.6-.3,1.4.4,2.3,1.9.1.5.3,1,.5,1.4,0,1.7-.2.9-.9.2-6.9-7.9-15.8-15.4-25-20.3l-11.5-4.1-.5-.7,1-.5c.3.1,1,0,1.5.1,10.4,3.9,19.5,9.5,27.5,17.2.5-.9-.8-2.3-1.3-3-2.7-4.1-6.7-9.2-10-12.8-.5-1.4.2-1.7,1-.5,1.1-.3,2.7,1.8,2.4,2.9,1,.3,1.9.3,2.9.2-1.3,4.1,4.5,4.6,1.9-.5l.5-1c-.5-.4-.7-1.1-.6-2-.9-.5-1.3-1.1-1.3-1.8-.7.5-1,.3-.5-.5-.7-1.1.2-2.2,1.4-1.9,1.7,0,1.5-.7-.5-1.9-.8,1.1-1.2.9-1-.5-.7-.7-.4-1,.5-.5,0-1.1.7-1,1.6-.9-.2-2,.3-3.2,1.3-3.9-1.3,0-1.4,0-.5-1-1.5-.5-.9-3.9.5-4.3-1.4-1.3-1.5-4.6,0-5.8-.4-1.4-.6-2.8-.5-4.3-.6.8-1,.5-.5-.5-.1-1.3-.2-4,1-4.8-1.3.1-1.4,0-.5-1,.4-1.1.4-2-.2-3l.6-.3c-1.3-.7-1.7-2.5-.5-3.4-.4-.1-.4-.3,0-.5-.9.2-1.3-1.9-1.5-2.7s0-.8,0-1.2c-.8.4-1,.3-.5-.5-1.2-2.8-2.7-5.5-4.3-8.2l-.8-.9c.4-1.1,0-2.1-1.1-3-.4-.1-.4-.3,0-.5-1.1-2.3-1.8-2.8-2.2-1.5h-.7c.2.2.2.3,0,.5,0,1.4-1,1.2-1.4,0-.7-.9-.4-2.4,1-2.4,0,0,.6-.1,1-.5-.5-1-1.1-1.9-1.7-2.7l.3-.6c-.1-.2-.1-.8-.5-1.4-1,0-1.8-1-1.9-1.9-1.3-1.2-2.1-2.5-2.4-3.8-.8-.4-2.3-1.9-1.4-2.9-.2-.3-.7-.6-1-1-1.1.3-2.5-2-1.9-2.9-.3-.3-.6-.6-1-1-1.3.6-3-1-2.9-2.4-.2-.1-.3-.4-.5-.5-.8-.5-.9-.8,0-1v-.5c4.1,3.4,6.6,6.4,9.7,10.7,6,8.4,10.6,17.7,15.5,26.7,0-6-2.4-11.7-5.1-17s-7.4-12.4-11.5-17.6l.2-.5.7.5,1.2.2c5.1,6.2,9.3,12.8,12.5,20-.5-8.7-1.9-17.4-4.5-25.7-.2-1.1.2-1.6,1.4-1.2,1.7,2.5,2.8,5.4,3.4,8.9,1.7,10,2.9,20.1,3.6,30.2-.6.3-.8.9-.8,1.8Z"/>
    <path class="st209" d="M685,425.3c-.3,5.4-2.5-.8-3.3-3-1.7-7.2-2.7-9.1-3.2-5.6-.6,6.6-2.5,13.1-4.6,19.5l-1.4,1.6c-2.1,9.1-3.4,18.7-4.3,27.8-1.2,7-2.2,13.9-1.8,21.1-.6,1.3-1.1.8-1.6-1.5-.6-5.3-3.1-14.2-2.9-18.7.6-16.1,13.6-33,14.4-50.4.5-2.2.4-4.5,0-6.7,0-1.1-.4-2.1-.5-2.9.2-1.3.1-2.6-.3-4.1l.8-.2c4.8,7,7.7,14.6,8.6,23Z"/>
    <path class="st179" d="M338.4,466.1c-.9,4.4-1.8,9-2.4,13.4-1.7,5.4-3.2-1.8-3.1-4.4h-.3s-2.5-25.5-2.5-25.5c-.7-5.2-2.5-10.2-3.7-15.3-2-2.1-2.8-5.4-1.9-8.2-1.7-.7-2.6-5-1-5.8l14.9,45.6Z"/>
    <path class="st31" d="M333.6,505.4c.9,3.2,1.5,6.6,1.9,10.1.4,2.4.6,4.8,1,7.2.5,7,1.7,14.1,3.6,21.1-.4.3-.8.3-1.2,0-7.5-7.6-5.9-25.4-5.8-35.8s-.3-2.1.5-2.6Z"/>
    <path class="st227" d="M668.2,465.6c-1.7,17.3-1.2,32-.9,49.2,0,5.6-.2,10.6-1,16.1l-.9-.9c-.3-3.1-.3-6.1,0-9.2l-.6-.2c.3-2,.3-4,0-6,.8-9.7,1-19.6,0-29.3l1,1.9c0-3,.3-5.9-.4-8.8l2.8-12.8Z"/>
    <path class="st330" d="M332.6,475.2l.5-1.4c0,2.1.2,5.7,1.9,7s.4-1,1-1.2c-1.6,12-1.8,24-.5,36-.3-2.1-1.5-4.3-1-6.7l-1,1c0-1.4,0-2.9,0-4.3-.1-10.1-.2-20.1-1-30.2Z"/>
    <path class="st292" d="M665.3,520.8c-.4,7.7-1.5,16.6-4.8,23.5,0,0,0,.6-.5.5l-.5-1.4c2.6-9.2,4.5-19.2,5.3-28.8,1,1.6.4,4.2.5,6.2Z"/>
    <path class="st85" d="M341.3,545.8c-1.4,0-1.7-1.2-2.4-1.9.9-.5.4-1.7.3-2.4-.9-5-2.7-9.9-3.1-15.1s-.3-2.8.5-3.6c1.3,8,2.4,15.2,4.8,23Z"/>
    <path class="st117" d="M577.9,308.2c4.9,1.4,6.9,5.1,3.4,9.4s-6.8,2-7.2.4,3.8-7.9,3.8-9.8Z"/>
    <path class="st117" d="M366.6,342.4c3.9-1.1,8.3,4.3,7.5,7.9s-1.9,3.8-2.9,3.9c-1.4.2-6.8-8.2-8.3-9.3,0-.3,3.2-2.4,3.7-2.5Z"/>
    <path class="st117" d="M623.2,355c-.4-.3-1.7-1.5-1.6-2l9.6-7.4-5.3,10.8c-.7.5-2.1-.9-2.7-1.4Z"/>
    <path class="st117" d="M434.4,316.3l-3.4-11.7c4.4-2,7.7-.3,8.6,4.4s-.7,6.4-5.2,7.3Z"/>
    <path class="st55" d="M672.5,437.8c1.1-4.9,3-9.5,4.1-14.4s.5-8.9,2.6-10.4.8.5,1,.9c1.6,3.8,1.8,7.4,3.6,10.8s.6,1.6.7,2.4l.5-1.9c.5,4.3.5,6.6,0,11s.2,2.3-.4,3.7c-.9,2.1-5.6,7.5-7.2,10.1-2.7,4.2-5.5,9-7.3,13.6-.9,0-.5-1.6-.5-2.1.5-7,2-14.4,3.1-21.3s.6-2-.3-2.4Z"/>
    <path class="st254" d="M699.4,434.4c-1.2,1.1-4.5,2.6-6.2,4.1-7.1,6-16.2,20.3-20.7,28.7-1.3,2.4-2.6,5.4-3.3,8-.8,0-.5-2.1-.5-2.7.6-9.9,11.5-25.5,17.8-33.3,1-1.2,2.4-1.9,3.3-3.1,5.2-6.4,11.9-14.7,12-23.3l1,4.1c.6,3.3-1,15.4-3.4,17.5Z"/>
    <path class="st39" d="M652.3,392.2c4.5,4.2,4.9,3.9,11,4.3l6.3.8c.9.2,2.5.7,2.4,1.6.9,1.9,3.4,5.3,3.4,7.4v7.2c0,0,1.3,1.4,0,1-3.6-9.5-17.8-10-23-17.4s-3.5-6.1-3.2-8.3c.8,1.5,1.9,2.3,3.1,3.4Z"/>
    <path class="st28" d="M709,435.8c.1.9.2,1.4,1,1.9.1.3.4.7.5,1-.8.8-1,1.5-.7,2.1l-.8.8c0,.2,0,.3,0,.5-.9.7-1.3,1.8-.9,2.9l-.5.9c0,1.5-.4,3.4-1,4.8,0,1.2-1.4,2.4-2.4,1.4-.6,0-1.2,0-1.9,0-.7.5-1.6.5-2.5,0-.6.9-1.2,1.2-1.8,1-.7.5-.9.2-.5-.5q-.5-1.4,0,0c0,.7-.3,1.4-1,1-.9.2-2,0-3.3-.4-.9.5-1.7.8-2.4.9-.5.4-.7.1-.5-.5-.3-.8,0-1.8.9-2.9-2.5-.6-3.8-1.2-4.3-3.9.3-.5.5-.9,1-1.4,1.4,0,2-.4,1.9-1.9.3-.3.5-.9,1-1.4,1,0,2-.6,2.9-1.9,1-1.3,2.3-1.5,2.1.5.8.2,1.3.4,1.3,1.5.1,1,.6,1.6,1.3,1.8.2,1.3-1.7,2.6-2.7,1.5q-1-1.2,0,0l.9.6c-.9,2.3,3.2,2.6,3.1.3-3.3-1.3-1.6-2.5,1.2-2.3l1.1-.9c-1,0-1.3-.4-1-1.4,0-.8.6-1.2,1.6-1.2-1.2-1.9-2-3.6,1-3.2.5-3.1,4-1.4,2.3,1.2-3.5,2.4,1.2,4.1,1.1,1.6l-.4-4.8,1.1-.4c.6.3.9.4,1.4,1Z"/>
    <path class="st47" d="M707.5,434.9c-.9,1.9,1.9,6.8-1.2,7.2s-3.2-.9-2.6-3,3.4-2.5.5-2.7c.9,2.4-.6,1.9-2.4,1.4,1.9,2.1,2.5,3.7-1,3.8-.4.2-.6,0-.5-.5-.9-.4-1.5-.4-2.4,0,.8.6.5,1-.5,1-.1.4-.3.4-.5,0-1.2-.6-3-.3-1.9-2.4l-1.4.5c-.2-.1-.2-.3,0-.5,2-1.7,3.4-3.9,6.2-4.8s5.5-1.2,7.7,0Z"/>
    <path class="st149" d="M676.3,402.2c-.6,1.2,0,2.3,0,3.6s-.5.7-.5.7c0-3.2-1.3-5.8-3.8-7.7s-5-1.5-8.6-2.4c6.7.5,8.8-.4,13,5.8Z"/>
    <path class="st327" d="M709,442.1c0,.2,0,.3,0,.5.3,0,.4.5.5,1.4.9,1.4.7,2-.5,1.9-.3,1.3-1,1.3-1.4,0-1.2-1.1-.5-5,1.4-3.8Z"/>
    <path class="st6" d="M711.8,443c0,.6,0,1.3,0,1.9-1.2,1.7-2.7,1.1-2.2-1.3l-.2.4c-.7-.2-.4-.9-.5-1.4,1.3-1.2,2.1.3,2.9.5Z"/>
    <path class="st237" d="M710.4,438.7c.5,1.7,1.2,2.9-1.4,2.9,0-.8-.8-1.8-.5-2.9h1.9Z"/>
    <path class="st17" d="M709.9,437.8c-2.2.4-2.8-.7-1-1.9.6.7.6,1.2,1,1.9Z"/>
    <path class="st55" d="M676.3,416.2c.1-2.2,0-4.5,0-6.7,0,.1.5.8.5,1.6.1,1.5.2,4-.5,5.1Z"/>
    <path class="st75" d="M324.5,426.2c.6,2.7,1.3,5.5,1.9,8.2-.9.4-.2,1.5,0,2.2,2.6,9.5,4.1,19.6,4.3,29.5l-4.9-10.2c-1.8-5-8-10.5-10-14.7s-1.2-14.3-.5-18.7c.8-3.3,2-3,4.6-.9,1.5,1.7,3,3.3,4.5,4.8Z"/>
    <path class="st174" d="M343.7,400.8c-6.4,4.5-16.6,5.6-19,14.4l-.2-6.5,1.4-7.9c-.5-1.2,2-3,3.4-2.9v-.4c6.4-2.4,12.3,1.1,18.2-4.5s1.9-3.1,3.3-4.1c0,4.6-3.6,9.4-7.2,12Z"/>
    <path class="st315" d="M329.3,397.4l.5.5c-1.7.2-2.9,1.5-3.8,2.9-3,4.6-2.7,14.2-2.4,19.7s.5,3.5,1,5.8c-3.7.1-4.5-6.2-8.6-5.3v2.6s-.5-1.2-.5-1.2c1.1-6.7,6.3-20.7,12.2-24.5s1.2-.3,1.7-.5Z"/>
    <path class="st240" d="M313.9,460.8c.1.3.4.7.5,1l1.1.6c.2,1.1.8,2,1.8,2.8-.3,3.7.9,3.3,3.8,1.6-.4-1.1-.6-2.2-.5-3.1v-.5c1.1-.9,2.4.4,2.9,1.4,0,.2,0,.3,0,.5,1.2.3.8,2.8.5,3.8l-1,.6c-5.4-.5-4.3,4.5,1.1,1.1l.9.7c1.4-.4,3.1,1.2,3.1,2.7-.5,1.4,0,2.4,1.7,3.1,0,0,.1.2.5.5,0,.7-.1,1.4-.5,2.2.7.5,1.4,1,1.9,1.6,0,.2,0,.3,0,.5-.8,1.2-.7,2.4.5,3.4,0,1,.3,2.7-.5,3.4q-1.2-.7,0,0c0,.3.5.7.5,1l-.3,1.1c-1.4.2-2.6.8-3.6,1.8-.1.4-.3.4-.5,0-2-.7-3.9-.2-5.7.9l-1-.4c-.7.5-.9.3-.5-.5-.2-.4-.3-.7,0-1.1,5.4-1.1,6.2-6.4.2-2.8l-1.1-.4c-.7.5-.9.3-.5-.5-.1-1.1.9-1.9,2.9-2.6,1.2-2-.5-3.3-2.4-1.5l-1-.7-.8-.9c7.6-6.4-6-2.7-.9.2l-.3,1.1c1.5.2,1.3,2,0,2.4-.1.4-.3.4-.5,0-.9-.9-1.9-1.9-2.9-2.9-.5-1.3-1.1-3.9-.5-5.3,1.1-.4.9-.4-.5,0,0,.4-.3.4-.5,0-1.4-.4-1.4-2.4,0-2.9-.8-.7-.5-1.1.5-.5l.9-.9c2.7,0,5.3-2.1,2.1-3.8v-1.1c-.9.4-1,.3-.6-.5.2-1.9-.5-2.7-2-2.6l-.9-.8c.1-1.1.4-2.8,1-3.8.2,0,.3,0,.5,0,0-.4.2-.4.5,0Z"/>
    <path class="st12" d="M295.2,447.4v.5l1.7,2.8c1.3-.2,2.5-.7,3.6-1.3,0-.2.3-.4.5-.5.9-.8,1-.7,1,.5,0,0,0,.3,0,.5.7,1,1.1,2.1,1.4,3.4.6,1.4,1.6,2.5,2.9,3.4.4.6.2,1.5-.4,2.5,1.5,1.1,2,2,1.4,2.7l1.1.3c0,1.5.6,2.7,1.8,3.6.2.9.2,2.2-1,2.4.9,1.7.6,2-1,1-.2.4-.3.4-.5,0-.6.1-.7.1-.5-.5,0-1.1.1-2,.5-2.9-1.7,0-4.2-1.1-2.4-2.9-.2-1.4-1.7-1.4-2.9-1.1l-1-.7c0-.9.5-1.8,1.8-2.6-1.6-4.2-7.3,1.1-2.2,2.1l.3.6c-1.3,2.2-1.6,3.9,1.7,3.1,2.8,1.2.4,3.1-1.7,2.6.6.3.8,1,.8,2,1,.2,1.5.7,1.6,1.4.8-.3,1-.3.5.5-.3,1.3-.2,2.2.3,3.5l-.8.8c.4.2.4.3,0,.5-1.2.8-3.8,2.3-4.8,1-.3-.3-.6-.7-1-1l.5-.9c6.7,0,.9-6.9-.6-.7l-.9.7c-.2,0-.7,0-1,0l-.9-.7c.3-1.5-.4-2.4-2-2.7,0,0-.6-.5-1-.5,0-.2,0-.3,0-.5,2.1-1.7,2.3-2.7-.5-3.8,0-.1,0-.3,0-.5l-.4-.7c.6-1.1.8-2.3.4-3.1,0,0,0-.4,0-.5l-.9-.7c.4-1.2,0-2.3-1.1-3.1,0-.1,0-.4,0-.5.5-.9,1.1-1.5,1.9-1.9.4-1.4,2.9-1.4,3.4,0v1.2c-3.1-.3-1.6,3.9-.1,3.1,2.3-1.2,1.3-3,.1-4.4-.5-.5-.6-1.2-.3-2.3-.9-.6-1.4-1.3-1.6-2.1.1-1.3.5-2.2,1-2.9,0-.4.3-.3.5-.5.1-.4.3-.4.5,0Z"/>
    <path class="st113" d="M303.4,437.3c1.1.7,1.4,1,0,1.4v.5c-.2,1.3-1,1.3-1.4,0-.3-.1-3.1-2.6-3.4-2.4,0,2.3,3.8,1,1.9,3.8.6,1.2-1.1,1.9-1.9,1-1.5.5-1.9-1.2-1.9-2.2s1.4-.7,1.4-1.6l-4.3.5,1.9,1c-.4,1.3-2.6,1.5-2.9,0,.2-1.6.2-3.2,0-4.8,1.3-1.2,2.1.3,2.7.3s1-.7,1.8-.7c2.5.2,4.4,2.2,6.1,3.3Z"/>
    <path class="st339" d="M293.3,444c.3-.4.4-1.4.8-1.5,2.7-.7,4.1.9,4.5,3.4-1.2.2-2.3.8-3.4,1.4s-.4,0-.5,0c-1.5-1.1-1.1-2.4-1.4-3.4Z"/>
    <path class="st339" d="M293.3,444c-.2.3-1.4,2-1.4,2.2,0,.4,1.9,1.3,2.4,1.7,0,1.4,1.8,3.3-1,2.9-.3,1.3-1,1.2-1.4,0-.3.7-.7.6-1-.5,0-1.8.1-3.5-.5-5.3l-1,1c-.1.4-.3.4-.5,0,.2-2.1-2.3-3.5,1.9-3.8s.4-.5,1-.3c.9.4,1.1,1.3,1.4,2.2Z"/>
    <path class="st16" d="M308.6,461.3c-.1,1.4-.5,1.5-1.4.5-.5-1.4-4.4-1.7-1-5.3-.2-1.2,0-1.3,1-.5,4.6-.5,5.9,3.3,1.4,5.3Z"/>
    <path class="st188" d="M313,460.8c1,1.7.6,2.9-1,3.8.3,1.4-.9,1.9-1.9,1-3.3,0-2.3-2.4-2.9-3.8.5,0,1-.3,1.4-.5,2-.6,2.7-.4,4.3-.5Z"/>
    <path class="st136" d="M320.2,461.3c-.2.3-.1,1.9-1,2.4,1,1.1-1,2.4-1.9,1.4-2.6,0-2.5-1.4-2.9-3.4,2.5-1,3.4-3.1,5.8-.5Z"/>
    <path class="st120" d="M314.9,456c4.3.3,3.4,4.4-1,4.8s-.3,0-.5,0c-2-2.4-2.3-2.9.5-4.3-.3-1.3,0-1.4,1-.5Z"/>
    <path class="st257" d="M307.2,456c-.3.3-.9.4-1,.5-1.8,1.1-3.9-1.9-2.9-3.4-.6-1.3.4-1.8,1.4-1,1.5-1.2,4.4,1,4.3,2.2s-1.5,1.3-1.9,1.7Z"/>
    <path class="st222" d="M300.5,449.3c-1.5,3.4-6.3,3.2-5.3-1.4,2.9-1.4,3.8-1.5,5.3,1.4Z"/>
    <path class="st137" d="M309.6,442.6c-1.8.3-1.3,1.8-2.4,2.6-2,1.4-2.9-.3-3.8-1.9,0-.6,2.3-1.3,2.7-1.8s-.4-1.2.6-1.3c1.6,1,1.6,1.2,2.9,2.4Z"/>
    <path class="st310" d="M312.5,452.6c.4,1.3-.4,1.8-1.4,1l-3.4-2.6c1.9-1.8,3.6-3.4,5.2-.4s.2,1.2-.4,2.1Z"/>
    <path class="st27" d="M301.9,449.8c1.7-.9,3.4-2.4,4.6,0s-.4,1.3-1.7,2.4-1.4.9-1.4,1c-.9.4-1.6-1.2-1.7-1.9-.3-1.2.3-1.2.3-1.4Z"/>
    <path class="st184" d="M314.9,456c-.1,0-.8.4-1,.5-2.3.4-5.3-.7-2.9-2.9s1.4-.9,1.4-1c2-.4,3.8,1.6,2.4,3.4Z"/>
    <path class="st167" d="M301,448.8c-.3-.5-1.7-3-1.4-3.4,4.8-1.7,6.6.7,2.4,3.8,0,0-.7-.1-1-.5Z"/>
    <path class="st243" d="M300.5,440.6c1.3.2,3.3,2.7,1.9,3.6s-3.2.8-3.3.7c-.4-.3-1-2.6-.5-3.3s1.8-1,1.9-1Z"/>
    <path class="st300" d="M310.6,446.4c.2,3.2-3.9,3.6-5.3.7,0-.4,2.6-1.7,3.2-1.7,1.2,0,1.4.7,2.1,1Z"/>
    <path class="st337" d="M295.7,439.2c1.1.4,1,2.9-1.7,2.9s-1.3-1.9-1.2-2.9c.8.2,2.3-.2,2.9,0Z"/>
    <path class="st170" d="M303.4,439.2c3.9,1.7.5,4-1.2,1.9s-1.2-1.7-.3-1.9c.3.1,1.1-.1,1.4,0Z"/>
    <path class="st234" d="M317.3,454.1c-.1.4-.3.4-.5,0-.5-.3-2.8-2-2.9-2.2-.1-.6.9-1.2,1-1.6,1.4.9,2.7,2,2.4,3.8Z"/>
    <path class="st36" d="M319.2,456c.8,3.3-3.7-.2-2.4-1.9.1,0,.4,0,.5,0,.3.1.8,0,1.2.4s.5,1.1.7,1.5Z"/>
    <path class="st40" d="M310.6,443.5c1.1,1.3,1.2,1.8,1.9,2.9-.8.6-1.2.3-1.9,0-.1-1.6-3.2-3.1,0-2.9Z"/>
    <path class="st109" d="M321.1,460.8c-1.7-.3-3.6-2.4-1.4-3.4.4.8,2.9,1.7,1.4,3.4Z"/>
    <path class="st312" d="M313.4,447.4c.6.9,1.7,1.5,1.4,2.9-.1,0-.9,0-1.4-.3s-2.4-2.2-1.9-2.6h1.9Z"/>
    <path class="st248" d="M289,440.2c2.5-3.2,4.2-.9,1.4,1.4-.8-.3-1.5-.1-1.4-1.4Z"/>
    <path class="st268" d="M306.2,438.7v1c-.8-.4-2-.7-2.9-1v-1.4c.6.4,2.2.6,2.9,1.4Z"/>
    <path class="st294" d="M292.3,469.9c-.5-1.8-1.4-1.4-.5-3.8,3.5-1.7,4.4,4.6.5,3.8Z"/>
    <path class="st64" d="M291.8,461.3c-3.2.6-2.1-2-1.9-3.8,2.8,0,2.1,2.1,1.9,3.8Z"/>
    <path class="st92" d="M291.4,454.1c1.2-1,1.9.1.5,1,0,1.2-.6,2.3-1.9,1.9-.6-1.3-.6-.8-1-2.9.6-1,2.6-1.7,2.4,0Z"/>
    <path class="st294" d="M291.8,461.8c.3.2.9-.5,1,.7.3,2.4-.8,2.6-1,3.2-1.4-.9-2.3-3.8,0-3.8Z"/>
    <path class="st308" d="M290.9,450.2c1.5,1.5,0,4-1.9,2.9-.1-2.2-1.8-3.8,1.9-2.9Z"/>
    <path class="st67" d="M289.4,445.9c1.5.5,1.4,3.4-.2,3.4-2.5,0-.3-3-.2-3.4h.5Z"/>
    <path class="st12" d="M291.8,450.7c2,0,.8,2.8-.5,3.4-.7-.6-1.7-.6-2.4,0,0-.3,0-.6,0-1,2.7,0,1.9-1.3,1.9-2.9.3,0,.6.4,1,.5Z"/>
    <path class="st117" d="M423.7,693.5c-1.6,1.4-7,1.1-7.5-.6s3.5-9.7,4.1-9.8c2.8,1.7,6.2,2.8,5.3,6.7s-1.3,3.2-1.9,3.7Z"/>
    <path class="st117" d="M425.3,670.1c1.6-1,4.5,1.8,4.7,3.6.6,4.8-4.5,7.1-8.1,4.3,1.1-.9,3-7.6,3.4-7.9Z"/>
    <path class="st117" d="M525.3,687.1c3.3,3.5,3.7,12.5,3.1,17.2s-3.9,7.4-7.1,4.8l-2.9-23.7c3.2-1.1,4.8-.6,6.9,1.7Z"/>
    <path class="st117" d="M612.3,646.7c5.4-.3,14.9,14.3,14.9,19.4s-1.5,4.2-3.9,4c-5.5-.6-14.4-14-14.2-19.4s1.1-3.8,3.2-3.9Z"/>
    <path class="st112" d="M685.9,588c0,0,.2.4.5.5.9-2.2,1-10.4,2.9-11.3s2-.1,2.9-.5c1.3-.5,3-1.9,4.1-2.2s4.7.1,5.6.5c1.3.5.3,3.8,1.3,4.8-1.8,14.4-20.8,16.1-27.1,26.9-.5.9-.7,1.8-.8,2.8-.9-.1-.5-2.5-.4-3.1.9-6.3,5-9,8.3-13.8s2.4-4.8,2.7-4.8Z"/>
    <path class="st297" d="M327.4,563.5c2.5,1.6-1.1,2.6-2.8,2.9v.5c-.2.5-3.4,1.8-4.2,2.4-5.5,4.1-8.1,11.2-6.4,17.9s12.3,13.5,11.4,22.9c-1.5-1.7-1.7-3.7-3.2-5.7-6.2-8.4-21.1-10.9-24.7-21.4s1.7-19.7,11.8-20.9,12.5.8,17.9,1.4Z"/>
    <path class="st251" d="M327.4,563.5c1.9.2,4-.2,5.9,0,5.4.7,12.3,2.9,16.6,6.2-8.1-3.4-16.8-6-25.4-2.9,0,0-.8-.2-.5-.5.5-.5,3.7-.4,3.4-2.9Z"/>
    <path class="st33" d="M303.8,522.2c4.2.8,8.2,2.8,12,4.8l-8.6-2.4c-4.6-2.4-10-1.9-13.9,1.4-.9-.6,1.4-1.8,1.4-2.2,0-1.1-2.5-.2-3.1-.2s-.7-.5-.7-.5c4.7-1.1,8.1-1.8,13-1Z"/>
    <path class="st103" d="M305.8,475.7c.8.2.9,1,.3,2.5,2.2-.9,3.9-.9,4.9,0,.7,1.4-.4,2.2-3.3,2.5-.3,3.3,1.4,3,3.8,2l.9.8-.2,1.1c-4.2,1.8-3.1,4.6,1.2,3l.9.7v1.1c-3.5.8-4.4,4.3,0,2.9l1,.8c.2.4.3.9,0,1.1-5.7,5.4,5.7,2.6,3.2-.7-1.6.4-2.7.3-3.2-.5l-.2-.7c2.1-.8,3.5-3.9.2-3.5l-1-.7c-.3-1.2.8-2.3,1.9-2.4h.5c1.3.3,2.1,1,2.4,1.9.2,0,.4.3.5.5.1,1.5.4,2.9,1,4.3.2,0,.4.3.5.5.5,3.3,2.8,3.2,6.7-.5h.5c.8.8,1.8,1.4,2.9,1.9,0,.2.3.4.5.5-.1,1.5,0,2.9.5,4.3,0,1.9,0,3.8,0,5.8l-.7.6c-5.3-.2-6.1,5.5-.6,3.1l.9.6c0,.2.5.8.5,1-.3,1-1.3,1.6-2.9,1.6.7,1.4.8,2.5,0,3.2-.2,0-.4.3-.5.5.1.4,0,.7-.2,1l-5.5,2.2c.2,3.1,2.6,1.9,4.6.7l1,.4c.1.2.3.4.5.5.7,1.9-4.7,3.9-5.8,2.4-.4.1-.8,0-1,.5-1.3-1.4-3.4-3.4-4.8-4.8l.5-.2c.2-.8-.4-.7-1-1.2,1.9-1.1,2.5-3.6-.5-2.2l-1-.7c-.7-.7-1.4-.4-2.4-1l.7-.9c4.8.6,3.6-4.4-.7-1.7.1,1,0,1.7-.5,2.1-.7.2-1-.2-1.4-.5-.8-1.9-1.8-2.9-3.8-3.4-.3-.3-.6-.4-1-1,2.6-1.8,1.5-3-1-3.8,0,0-1.3-.8-1.4-1,1.6-.9,3.9-3,.3-2.6l-.8-.7v-.5c1.2-2.6.7-3.8-1.4-3.4l-.5-.5c0,0,0-.5,0-.5l.2-1.1c1.6-1.5,1-2.4-1.7-2.7,0-.4-.4-.4-.5-.5.2-.8.5-1.6,1.1-2.4-.9-.3-1.7-.6-2.5-.9v-.5c1.1-2.5.7-3.4-1.1-2.7l-.8-.7c0-.3,0-.7,0-1,2.2-1.3,1.9-2.3-1-2.9,0-.3-.4-.6-.5-1,1-.8,1.6-1.4,2.4-2.4.2,0,.7,0,1,0l.8.7c0,4.2,4.7,2.2,3.5-1.1l.9-.6c0-.2,0-.3,0-.5.1-.4.3-.4.5,0,1.6.1,2.1.4,1.4,1Z"/>
    <path class="st15" d="M298.1,475.2c-.3-.3-.9-.9-1-1-.6-2.8.8-3.5,3.4-4.1s2.5,2.9,1.7,4.1-3.1,1-4.1.9Z"/>
    <path class="st100" d="M303.8,475.2c0,.9.2,3.2-.2,3.9s-2.6,1.3-2.9,1.2c-1.7,0-2.6-2.6-2.2-4.1.2,0,.3,0,.5,0,1.8-.2,3.3-1.8,4.8-1Z"/>
    <path class="st44" d="M313,512.6c-1.9-3.8,1.6-3.3,4.3-4.3,1.7,4.1.6,5.1-3.8,4.8-.2-.1-.3-.2-.5-.5Z"/>
    <path class="st205" d="M301.9,495.4c4-2.4,4.6,3.8,1.9,3.8s-2.4-1.8-2.4-3.1.4-.6.5-.8Z"/>
    <path class="st192" d="M315.8,514.1c1.2-.4,2.3-.8,3.4-1.4.7,2.6,1.4,4.4-1.9,4.3-.5-.5-3-2.1-2.4-2.9.3,0,.7,0,1,0Z"/>
    <path class="st41" d="M300.5,491c3.7-2.1,4.8,2.7,1.4,3.8-.1-.2-1.3,0-1.7-1.9s.2-1.4.3-1.9Z"/>
    <path class="st319" d="M305.8,504c.2,0,.8-.6,1.6-.4,2.3.6,2.9,4.8-.6,4.2-.8-1.1-2.4-2.4-1-3.8Z"/>
    <path class="st205" d="M303.8,499.7c4.4-2,5,4.1.5,3.4-.6-.8-1.5-2.6-.5-3.4Z"/>
    <path class="st64" d="M296.6,483.4c2.8-1.5,3.6.3,3.8,2.9-.7-.2-1.4.4-1.9.5-1.5.2-1.5-2-1.9-3.4Z"/>
    <path class="st83" d="M297.6,476.2c.3,2-.4,2.7-2.4,2.4-.3-.9-1.8-2.7-.5-3.6s2.3.9,2.9,1.2Z"/>
    <path class="st274" d="M298.6,487.2c3.6-1.6,4.9,2,1.4,3.4-.8-.9-2.5-1.9-1.4-3.4Z"/>
    <path class="st38" d="M296.2,474.2c-2.5-.6-3.2.7-2.9-3.4.2,0,.7-.5,1.2-.4,1.9.1,1.8,2.4,1.7,3.8Z"/>
    <path class="st116" d="M296.6,482.4c-.3-.9-.7-1.9-1-2.9,3.3-1.9,5.2,3.3,1,2.9Z"/>
    <path class="st108" d="M311.5,512.2c-1.1-.7-2.9-2.4-3.8-3.4,1.6-1.5,5.1,1.6,3.8,3.4Z"/>
    <path class="st163" d="M682.1,488.2c-.8,3.2,8.1,6.7,6,2.5l.2-1c-.7-.7-.4-.9.5-.5,0-1.3,1.4-1.5,2.4-1.4.5-.8.7-.4,1,.5.8-1.1,5.3.6,4.8,1.9l.9.7-.4,3.7v.5l-.4.6c-2.3.3-2.2,1.4.4,3.3-.2.3-.9.6-1,1-.8.3-1.7.7-2.7,1,.2,1,.5,1.9.8,2.9-.2,0-.4.3-.5.5-2.6.6-2.7,2.6-.5,3.8-.2.3-.7.6-1,1-2.3.6-2.7,1.1-1.4,1.4l.5.5c-2.6,2-5.2,4.1-7.7,6.2l-.5-.5c-.2-1-.9-2.4-2.2-2.4s1,3.1,1.2,2.9c-.3.3-.6.7-1,1-1.3,0-2.2.8-2.7,2.3h-.7c0,0-.4-.6-.5-.8-.9-.8-7.2-4.5-6.2-1.2s2.9,2.1,4.7,2.2l.5,1c-.2.3-.7.5-1,1,0,.5-.3.8-.7.9l-4.9-1.7c-.7.8-1.4,1.2-2.1,1.2,0-.8,0-1.6,0-2.4.8-1.6.9-3.2.5-4.8.2,0,.3-.4.5-.5l.2-1c3.1-.3,1.4-2.6-1.1-2.6l-.5-1.2c0-.2.5-.7.5-1,.2-.3.6-.6,1-.5,6.1,1.2,4.3-3-.5-3.3l-.5-1c.1-.3.8-.6,1-1l.8-.6c6.6,3.8,5.8-2.1-.2-2.2l-.6-1c.2-.3.9-.6,1-1q1.4-1,0,0c-.3-.1-.6-.3-1-.5-.6-.9-.9-2-1-3.4.2,0,.4-.3.5-.5,3.2-.8,3.1-3.2-.5-3.9l-.5-.9c0-.2.9-.7,1-1l.9-.6c1.7,1.3,3,1.4,3.9.1.1-.4.3-.4.5,0,1.5,1.3,6.8,5.2,5.7.9l1-.9c0-1.4,1.1-1.3,1.4,0Z"/>
    <path class="st23" d="M709,450.7l1,.4c0,.8.2,1.4.9,2,0,.2,0,.3,0,.5-1.2.6-1.6,1.7-1.1,3.2-.9,1.6-1.2,3.1-.8,4.5,0,0,0,.3,0,.5-.9,1.1-1.6,2.2-1,3.8.1,0,.5.8.5,1-.5.6-1.2.8-2.3.5,0,1.3-.3,2-1.1,2.4-.3,0-.7.5-1,.5q-.8-.7,0,0c0,.5.2.4.5.5.7.9.8,3,0,3.8,0,.1,0,.3,0,.5-.9,1.2-1.6,2.4-1.8,4l-1.1.4c-1.1-2.3-2.7-2.9-5.4-3.3l-.4-1.1c-.7-.5-.7-1.6,0-3.1-4.1-1.2-3.1-2.9.9-2.7,1.2-.2,2.7-2.3,1-2.8-1,1.1-2.4-.1-1.9-1.4.5-.8,1.5-.9,3-.2.4-1.1,1-1.5,1.8-1.3q1-.2,0,0c-1.3.8-2.2-1.2-1.9-2.4l.6-.9c4.1-1.2-1.8-5.9-2.8-1.8,1.5.8,2.2,1.7,2.2,2.6-.6,1.1-3.2.5-3.8-.5q-.9-.5,0,0c.9.4.9,1.2,0,2.6v1.2c-.3,1.3-1.4,1.2-1.8,0-1.3-1.3-4.3-4.3-5.7-1.6,1.6.9,3.2,1.8,4.7,2.6.8.8.7,2.7.5,3.8,0,1.4-1.8,1.8-2.4.5l-.7-1c1.6-4.6-8.3-3.3-2.2-.1v1.1c-.3.9-1.2.9-2.8,0-6.2,2.3,6.5,7.4,2.7,1l.2-1.1c.5-1.2,2.5-1.4,2.9,0,.7.7,1,1.9.9,3.5l4.5.7.4,1.1.9.4c-.9,3,.7,4.3,4.8,3.9l.5.4c-.3,1-.4,2,0,3-.2,1-1.1,1.3-1.9,1-6.1-6.1-8.5.3-.5,1,1,.6,1.8,1.2,2.4,1.9-.2.4-1.1.6-1.4,1-.6.6-1.4.9-2.4,1h-.5c-1.3-1.5-5.7-5.2-4.8-.8l-1,.8c-.3-.2-.6-.3-1-.5-.8-.2-1.1-1-1-2.2-5.7-3.6-8,.5-1.5,2.5v1.2c0,0-.3.3-.3.5-1.1.6-2.5.3-4.4-.9-.9.2-1.5,0-1.8-.5-.7,0-1.4,0-1.4,0-.6.9-1.9.7-3.7-.8-1.1-.4-1.5-.5-2,.7h-1c0,0-.5,0-.5,0-1-1.3-2.3-2.2-3.8-2.9,0-.3-.3-.5-.5-.5-.6-1.1-.7-2.2-.5-3.4,0-.1,0-.3,0-.5,1.8-1,2-2.1.5-3.4.2-.7.3-.9.5-1.4.7-.1,1.4-.2,2.1-.2,0-1.1.1-2.2.3-3.2.4-1.4,2-1.3,2.4,0l.8.8c-1.9,3.2,6.6,3.2,2.3.3l.2-1.1c.3-.8,1.1-1,2.3-.5,1.9-4.1-6.2-3.3-2.1-.5l-.3,1.1c-.7,1.3-2.7,1.3-3.4,0l-.6-.3c0-1.1,0-2.3.1-3.5,0-.1,0-.3,0-.5,2-.7,2.5-1.8,1.4-3.4.3-.6.6-1.3,1-1.9.8.3,1.4.8,1.9,1.4q.6.7,0,0l-.6-1c.8-1.3.9-1.6.1-2.8.3-.6.5-1.2,1-1.9,1.7,1.2,2.5-.5,1.4-1.9.2-.3.3-.7.5-1,1.4-.4,2.6-.7,1.9-2.4.2,0,.3-.4.5-.5.3-1.4,2.2-2.2,3.4-1.4v.5c-.2,1.3-.7,2.6-1.4,3.8-.2.4-.4.7-.8,1-1.3,1.1-1.5,1.8.8,2.9s1.8-.7,2-1.8c-2-.4-2.6-1.1-2-2.2l1-.8c3,.9,4-.2,1-1.9v-1.1s0-.5,0-.5c1.1-1.1,3.9.4,3.4,1.9.2.2.3.3.5.5,3.4,1.9,5.3,1.7,5.8-.5.2-.4.7-.6,1-1,.2,0,.4.3.5.5,1.8,1.8,6.3,2.9,4.3-1,.4-1.2,1.7,0,1.9,0,1,1.6,3.6,3.7,3.4.3-1-.3-1.6-.6-1-1.7.3-1.4,2.1-1.3,2.4,0Z"/>
    <path class="st105" d="M697.9,488.2c0,.5-1,1.5-.9,1.7,0,.8,3.3.8,3.3,2.3s-1.1,2.6-2.8,2.3c-2-.6,0-3.7-.5-4.3s-3.5-1.2-4.8-1.9c0-.9-.2-2.2,0-3,.6-1.8,6.2,0,5.7,3Z"/>
    <path class="st338" d="M704.6,474.7c.2.5,1.3.2.9,2.5s-1.5,1.1-1.8,1.3.6,1.1.4,2-1.4,1.7-1.4,1.8c-.1.4-.3.4-.5,0-2.3-1.4-1.1-1.5-.5-3.4s.7-4.7,2.9-4.3Z"/>
    <path class="st128" d="M710.9,453.6c0,.4.6,1.6,0,3s-1.3.7-1.3.8c-.1.2,2.4,3.7-.5,3.8-.3-.3-1.4-.3-1.5-.8-.2-1.1,1.1-2.2,1.3-3.1.3-1.5-1.2-4.5,2.1-3.9Z"/>
    <path class="st105" d="M697.4,494.9c.5.2,1.1,0,1.4.8,0,1.2-.8,2.1-1.4,3.1-3.8.6-4-5.2,0-3.8Z"/>
    <path class="st207" d="M694.1,504c1.9,1.1.4,2.5-.5,3.8-3.2.5-2.7-2.2-1.9-4.3.8-.2,1.6,0,2.4.4Z"/>
    <path class="st25" d="M696.5,499.7c0,.1.6.4.1,1.8s-.8,1.5-2,2.1c-3.4-1.9-1.7-5.5,1.9-3.8Z"/>
    <path class="st204" d="M708.5,466.6c.1,1.3-.8,3.3-2.2,3.4s-1.1-.5-1.2-.5c-.3-3.1.3-4,3.4-2.9Z"/>
    <path class="st144" d="M702.2,482.4h.5c-.1.6.8,1.9-.5,3.8l-2.4-.2c-.6-.4-.2-1,0-1.7-1-.8-.8-1.1.5-1,.5-.8.8-1.2,1.9-1Z"/>
    <path class="st54" d="M700.8,487.2c.2,0,.7,0,1,0,.3,3.2-3.6,4.8-3.4,1s.5-1,.5-1.4c.7-.2,1.3.2,1.9.4Z"/>
    <path class="st169" d="M704.6,470.4c.5.2,2.3,0,2.4.8.3,1.3-.7,3.4-2.4,3.1-.5-1.4-.9-2.5,0-3.8Z"/>
    <path class="st128" d="M709,461.8c.8,1.6.8,3-1,3.8-.2-.1-1.2,0-1.3-.7s.8-2.4.4-3.4l1.9.2Z"/>
    <path class="st28" d="M711.8,445c0,.5,0,1,0,1.4-1.6.4-1.8,1-.6,1.8l.2,1c0,.3,0,.6,0,1-.7.4-1.7.8-2.4.5-1.6-.3-1.6-4.5,0-4.8,0-.2.4-1.2.5-1.9s0-.6,0-1h.5c-.1,1.6.3,3.1,1.9,1.9Z"/>
    <path class="st195" d="M711.4,450.2c-.1,1.4-.4,2-.5,2.9-2.2.2-1.8-.8-1.9-2.4.3-.1.7-1.9,2.4-.5Z"/>
    <path class="st231" d="M711.8,446.4c0,1.2-.4,2.2-.5,2.9-2.5-.4-2.5-4.7.5-2.9Z"/>
    <path class="st158" d="M692.6,508.8c-.6.6-.7.9-1.4,1.4s-2.3,1.5-2.4,1.4c.3-2.3,1.3-4.1,3.8-2.9Z"/>
    <path class="st271" d="M666.2,530.9c-.4,5.3-1.4,10.1-5.8,13.4l4.8-23.5c.2,3.1,1.2,6.9,1,10.1Z"/>
    <path class="st305" d="M667.7,489.6c1.4-.5,4.1,1.7,4.6,1.8s1-.8,1.8-.7,5.6,2.3,5.6,2.6c1.1,5-7.7,2.9-7.7-.8-1,0,0,1.4-.8,2s-1.8.4-2.6,0c-1.3-.8-1.3-3.5-1-4.8Z"/>
    <path class="st94" d="M669.1,503.5c-1.1-.8-1.3-1.6-.9-3s.8-.7.9-.8c2.7.1,7.7,1.3,6,4.8s-4.8,0-6-1Z"/>
    <path class="st45" d="M677.8,519.4c-.2.7-.6,1.3-1,1.9-4,.1-7.6-1.2-5.8-5.8.2-.2,5.9,1.9,6.2,2.2.7.5.3,1.4.5,1.7Z"/>
    <path class="st287" d="M675.8,522.2s.4.4.3.6c-.5,1-1.9,2.9-3.1,3.1s-4.7-1.6-4.9-1.9,0-.9,0-1.3c1.7-4.6,4.4-.5,7.7-.5Z"/>
    <path class="st90" d="M668.2,509.3c0-.2-.5-1.1-.5-2.1s0-1.5.5-2.7c1.3-.2,5.7,1.3,5.8,2.6.1,3.5-3.3,3.8-5.8,2.2Z"/>
    <path class="st220" d="M686.9,446.9c1.5-.2,1.2,1.4,1.6,1.8,1.4,1.4,6.5.2,1.8,4.9-1-.8-2.2-1.4-3.4-1.9.1-1.8.3-1.9-1.4-2.2-.3-1.5,1-1.9,1.4-2.6Z"/>
    <path class="st154" d="M673.4,488.2c0,3.4-3,1.5-4.8.5,0-1.1-1.6-2.1,1-3.4s4.4.7,3.8,2.9Z"/>
    <path class="st322" d="M668.2,525.1l4.8,2.2c-2.5,4.6-6.7,2.9-4.8-2.2Z"/>
    <path class="st171" d="M685,456c-.9-1.4.2-3.5,1.4-3.8s.4,0,.5,0c.4.1,3.3,2.3,3.3,2.6s-1.5,1.6-2.2,1.7c-1,.1-2.1-.5-3.1-.5Z"/>
    <path class="st8" d="M667.7,510.2c.7.3,3.8.8,3.9,1.3,1,3.4-.7,3-2.4,3.5-1.5-.8-1.3-3.3-1.4-4.8Z"/>
    <path class="st180" d="M683.5,516.5c-.2.2-.8.3-1,.5-3.1,0-2.4-2.2-1.9-4.3l4.3,2.2c-.6.4-1,1.3-1.4,1.7Z"/>
    <path class="st229" d="M672,472.8c2.1,2.7.2,5.9-2.4,3.4.5-1.4,1.3-2.5,1.9-3.8.5-.1.6,0,.5.5Z"/>
    <path class="st199" d="M673.9,469c0,.2.9.3,1,1.2s-.4,1.8-.5,2.6c-.8,0-1.6,0-2.4,0-.1-.2-.3-.3-.5-.5.5-1.1.1-3.3,2.4-3.4Z"/>
    <path class="st89" d="M675.4,465.1c3.1.6,1,4.7-1.4,3.4-.7-2.5.9-2.4,1.4-3.4Z"/>
    <path class="st172" d="M678.2,464.6c-1.6.1-2.2.3-1.9-1.4.5-.8,1-1.6,1.4-2.4,3,.5.9,2.6.5,3.8Z"/>
    <path class="st102" d="M668.6,515.5c2.3,1.2,1.4,3.7-.5,4.8-.1-1.3-.9-2.9-.5-4.5.1-.6.8-.2,1-.3Z"/>
    <path class="st34" d="M669.6,530.9c.3.4-.4,1.4-.7,1.8l-2.6,2.4,1-5.3c.2-.2,2.3.9,2.4,1Z"/>
    <path class="st225" d="M680.2,457c1.2,0,1.5.6,1.5,1.7s-3.5,3.5-2.9.2c.5-.9,1-1.3,1.4-1.9Z"/>
    <path class="st88" d="M668.6,481c-.2-1.4.2-2.2.5-3.4,3-.2,2.6,4.1-.5,3.4Z"/>
    <path class="st81" d="M686.4,451.7c-.8.8-2.8,1.1-3.4,1.4-.3-2.6,2.7-4.4,3.4-1.4Z"/>
    <path class="st107" d="M682.6,453.6c3,.2-.4,4.6-1.9,2.4.7-1,.3-1.4,1.9-2.4Z"/>
    <path class="st203" d="M668.2,494.9c1.4.7,1.6,1.9,1,3.4s-.6,1.1-1.4,1c.5-.9-.6-4.1-.5-4.3s.7,0,1,0Z"/>
    <path class="st280" d="M669.1,484.8c-.4,0-.9.6-1.4.5,0-1.4-.3-2.9,1-3.8,0,.3,2,1.6.5,3.4Z"/>
    <path class="st304" d="M681.6,517.9c-.8.7-2.4,3.7-3.4,2.4.8-2.1.5-3.9,3.4-2.4Z"/>
    <path class="st228" d="M693.6,440.2c.5,1.6-3.3,4.2-2.9,1.9,1.1-1.2,1.9-1.5,2.9-2.4v.5Z"/>
    <path class="st275" d="M687.8,445.4c.7-.9,1.3-1.3,1.9-1.9,2.4.7-1.1,4.3-1.9,1.9Z"/>
    <path class="st50" d="M379.2,570.2c-.3-.8-.3-.9.5-.5l2.3,2c43.1,72.3,142.5,90.4,206.6,34.8,13.7-11.9,26.7-26.2,34-43l1.4-1.1c21.4-45.3,18.1-101.1-11.6-142.4l-.4-1.6c-.6-.7-.4-.9.5-.5,39.7,54.1,36.1,128.9-9.8,178.1-65.5,70.2-175.8,56.6-223.4-25.9Z"/>
    <path class="st93" d="M589.9,393.6c8.5,7.6,15.8,15.3,22.6,24.5l-.5.5c-.4.4-.8.7-1.2.3-8.1-10.5-17.4-20.1-27.6-28.6h-1.4c-12.7-11.2-29.4-17.3-45.3-22.3l-.8-1.2-2.9.3c-91.6-23.7-182.6,56.1-169.7,150.1.7,5,1.4,9.8,1.7,14.7l.9,1.1c3.6,12.2,8.2,24,13.9,35.4v1.4c0,0-.4.5-.4.5-24.1-41.8-25-90.1-3.8-133.4s1.6-2.9,2.4-4.3c.4-2.2,1-4.3,3.1-5.3l1.7-2.8c24.4-31.1,47.6-51.6,87.8-60.3,46.8-10,82.4,2.6,119.5,29.5Z"/>
    <path class="st130" d="M374.4,415.2c-3.5-6.4,7.9-17.2,13.5-15.6s2.3,1.3,2.5,1.8c3.2,7.7-7.6,17.4-12.6,22,0,1.9-2.1,3-3.8,3.4-3.5,3.3-6.6,5.5-9.6,9.6-7.3,9.9-10.1,22.6-10.1,34.8,0,1.5,1.1,7.2.8,7.9s-.6.6-.7.5c-3.6-16.1-1.4-31.5,8.9-44.6s14.2-12.5,20.4-19.5,6.2-8.3,4.7-12.7c-5.9-.5-12.4,3.3-12.4,9.7,3.1,2.7,4.7-3.6,7-4s.6,2.1.3,2.7c-1.7,3.6-5,4.9-8.7,4Z"/>
    <path class="st241" d="M355.7,529.9c.7,0,.9,1.3.9,1.7.7,7.2.5,14.2,2.2,21.3,4.3,17.8,17.5,25.5,29.3,37.5s3.9,2.9,5.3,4.8c2.1,2.9,4.6,9.8.1,11.6-5.9,2.4-17.8-8.3-14.7-13.7s9.7,2.4,9,4.7-2.6-2.5-3.5-3.1-2.8-.9-3.4,0c-1.8,2.5,7.4,13.2,11.8,9.4,3.4-2.9-2.5-10-4.6-12.3-5.1-5.6-12.4-9.8-17.8-15.3-11.9-12.1-18.4-29.6-14.6-46.6Z"/>
    <path class="st65" d="M619.7,400.8c1.5.9,5.5,6.4,5.9,8.2,2.5,10.1-8.4,5.7-8.8-.8,1.9-1.1,1.7,1.6,2.8,3,1.6,2.1,4.3,2.3,4.4-.6.4-6.1-16.2-15.6-13.1-3.2s20.2,19.1,26.3,26.5c9.9,11.9,12.5,29.4,8.4,44.2-.8.1-.5-1.1-.5-1.7-.7-18.1.8-30.6-12.2-44.9-6.7-7.3-18.6-13.3-22.8-22.1s-2.6-11.5,4.5-10.5,4.8,1.7,5.1,1.9Z"/>
    <path class="st59" d="M480.5,646.1c-.2.9-1,.8-1.6,1-15.6,5.4-33.5-2.3-45.2-12.5s-14.5-17.8-23.6-18.7-1.9,8.7,2,10.9c5.9,3.3,6.7-2,1.9-3.8s-1.2.2-.7-1.2.8-.5,1.3-.4c3.1.4,6.9,6.6,3.4,8.1-6.4,2.8-19.9-10-12.7-15.1,5.5-4,14.5,4.5,18.5,7.9,10.2,8.9,16.1,17.3,29.7,22.2,8.7,3.1,17.9,2.1,27,1.6Z"/>
    <path class="st114" d="M581.8,626.9c1.4,1.3,4.7.6,6.4,0,4.3-1.7,11.2-11.7,2-11.3-7.8.3-19.4,16.2-25.5,21.4-11.5,9.7-22.4,12.6-37.4,11.5s-5.3-.4-7-1.7c5.8-.4,11.7.7,17.5.2s18-5.7,24.2-10.4,19.3-21.1,27-22.9c13.6-3.2,8.6,11.8-.6,14.8s-6.9,1.7-6.7-1.7Z"/>
    <path class="st279" d="M607.7,595.7c-.5-.5,1.9-3.5,2.4-4.1,11.3-13.4,24.1-17.5,31.3-36.4,3.2-8.4,2.7-17.1,4-25.8.5.5,1,1.1,1.1,1.8,2.9,14.5-4.8,31.5-14.3,42.1s-15.1,11.9-21.4,18.9-2.4,4.1-3.1,3.4Z"/>
    <path class="st11" d="M606.6,601.8c.4-.6-.4-2.3.8-1.8.9,7.5,9.7,1.1,12-2.4,4.2-6.5-3.4-6.9-5.3-.9-1,.2-.9-.5-.7-1.2.5-2.3,6.3-7.6,8.6-3.3s-3,10.3-6.4,12.2-9.8,2.9-10.3-.8,1-1.2,1.3-1.7Z"/>
    <path class="st114" d="M582.7,626.4c-1.7,1.5-.6-2.6,1.7-4.3s4-2.2,2.6-.2-2.7,2.1-3.6,3.1-.6,1.4-.7,1.4Z"/>
    <path class="st13" d="M520.3,354.2c-.1-.7.9-.7,1.3-.8,16-4,32.2.4,44.5,10.9,7.1,6.1,18.8,23.4,28.8,22.1s1.4-3.8.4-5.7c-1.7-3.5-5.8-7.6-10.1-5.8-1.7,2.4,6.2,5.6,2.9,6.3s-9-9.6-1.4-9.1,18.9,18.2,6.2,16.8c-9-1-21.3-17.2-28.3-23-12.3-10.3-28.7-12.9-44.4-11.5Z"/>
    <path class="st1" d="M481,354.7c.1.8-1.1.5-1.7.5-7.6.3-14.8-.9-22.6,0-15.2,1.8-24.9,10.5-34.3,21.6,2.2-4.9,6.9-10.1,11-13.7,13.3-11.5,31-13.2,47.5-8.4Z"/>
    <path class="st135" d="M413.6,380c-1.5,1.6-3.1,1.6-5.1,1.6,0-1.6,2.1-1,3.4-2.1,2.1-2,1.3-4.5-2.1-4-4.9.7-11,11-5.7,12.7s9.7-3.5,13-6c.5.5-3.3,4.1-3.8,4.6-3.3,2.6-11.4,6-13.6.6s7.3-14.5,11.9-14.8,4.7,4.6,2,7.5Z"/>
    <path class="st101" d="M377.8,432.5c0-1.3-.3-3.4.5-4.5s1.6-.5,2.2-.9,1.6-2.2,2-2.8c-.9,3-3.3,5.5-4.8,8.2Z"/>
    <path class="st101" d="M373.9,426.7c1.3-1.2,2.6-2.3,3.8-3.4,1.3,2.3-1.6,3.9-3.8,3.4Z"/>
    <path class="st214" d="M328.8,515.5c0,0,.5.4,1,.5,1.2.1,1.5,1.2.5,1.9-.5.8-.7,1.3-1.4,1.9-1.3,1.1-4.8,2.8-6,.9s-.8-2.3-.7-2.6c.1-.4,5.8-2.7,6.7-2.7Z"/>
    <path class="st94" d="M331.2,524.2c-.3,2-2.1,2.4-5.3,1.4-1.2-.6-1.9-1.7-2.4-2.9,1.9-.5,4.3-1,5.8-2.4,1.4.6,2.3.8,2.4,2.6s-.5,1.1-.5,1.2Z"/>
    <path class="st166" d="M332.2,505c0,1.6-.4,3.1-.5,4.3-1,.5-3.9,1.5-4.7.9s-1.1-3.6-1-3.7c.2-.3,5.5-2.7,6.2-1.5Z"/>
    <path class="st307" d="M320.6,463.7c.8.3,1.7,2.5,1.5,3.5s-2.5,1.4-2.9,1.5c-2.8.8-3.8-1.8-1.9-3.6s1.8-1.4,1.9-1.4,1.3,0,1.4,0Z"/>
    <path class="st78" d="M329.8,477.1c-.2,0-1.4,1.1-2.4-.7s0-3,0-3.1-2-.9-2.4-2c-1.5-.2-1.4-1.6,0-1.9-.6-.7-.3-1,.5-.5,2.5-.3,2.5,2.7,3.2,4.3s2.6,2.2,1.2,3.9Z"/>
    <path class="st217" d="M331.2,524.2c0,.2.8.9.9,1.7,1.3,7.9-6.2,2.1-4.8.7l1.4-.5c-1.3.2-1.8,0-2.9-.5,2,.3,3.6-.5,5.3-1.4Z"/>
    <path class="st104" d="M332.2,489.6c.1,1.6.5,3.9-1,4.8s-2.8-.1-2.9-1.9,2-2.3,3.8-2.9Z"/>
    <path class="st14" d="M332.2,510.2c0,.8-.3,4.6-.5,4.8s-1.8,0-2.4,0l-1.4-3.8,4.3-1Z"/>
    <path class="st326" d="M325.4,469c0,.2-.4.4-.5.5-.7.7-1.1.5-1-.5-1.2-1.9-.7-2.2-.5-3.8,2.8,0,2.4,1.9,1.9,3.8Z"/>
    <path class="st150" d="M331.7,481.4c-2.9.3-4.1-2.3-1.4-3.8,1.9,1.2,1.1,2.2,1.4,3.8Z"/>
    <path class="st293" d="M329.8,516c.8,0,2-.9,2.3.3s0,2.8,0,4c-1.5.1-1.6-1.4-1.9-2.4s-.6-1.2-.5-1.9Z"/>
    <path class="st125" d="M332.6,530.4c.2.2.3,3.6.5,4.3-.8-.3-3-3-2.9-3.6s2.2-1,2.4-.7Z"/>
    <path class="st202" d="M323.5,464.6c-1.3.2-1.9-.8-2.9-1.4.7-3,2.5-1.9,3.2.5s-.3.9-.3.9Z"/>
    <path class="st146" d="M331.7,494.9c.3,0,.9-.3,1,.3.3,1.2-.4,2.8-.5,4-2-.9-1.8-2.8-.5-4.3Z"/>
    <path class="st332" d="M331.7,481.9c.2,1.2.5,1.8.5,3.4-2.6.1-2.8-3.1-.5-3.4Z"/>
    <path class="st219" d="M701.8,443c0,2.2-1.8,1.6-3.4,1.4,0,1,1.8.5,2,1.3.6,3.1-3.2,4.1-4.9,1.9s0-1.5,0-2.2c.5,0,1.5-1.2,2.4-1-.5-.8-1.4-.5-1-2.4.1,0,.4,0,.5,0,1.1.5,2.4.6,3.9.4l.4.5Z"/>
    <path class="st69" d="M702.2,452.2c.8.4,1.6,0,1.5,1.7-.4,3.5-4.3,1.2-6.3.7-.1-.6.2-1,.5-1.4,1.3-2.6,1.7-2.2,4.3-1Z"/>
    <path class="st142" d="M705,447.9c.3.5.2,2.7-.4,3.1-1.6.7-3.2-.1-4.8-.3-.2-.2.9-3.7,1-3.8.6-.4,3.9.5,4.2,1Z"/>
    <path class="st186" d="M696.5,453.6c1,.9,0,2.8-1.2,2.9s-3.9-1.2-4.3-1.4c-.5-.3-.2-.9-.3-1,1.2-2.6,4-2.1,5.8-.5Z"/>
    <path class="st276" d="M701.8,445.9c-.4-.6.9-2.9,1-3.8,3.5-.2,4.4,2.6,2.6,5.2-.6-.5-3.4-1.2-3.6-1.5Z"/>
    <path class="st20" d="M697.4,452.6c-1.6-.4-5.1-.9-4.1-2.9s3.6-.3,5.5.7c-.5.7-.9,1.5-1.4,2.2Z"/>
    <path class="st159" d="M706.6,450.7c.6.8,1.8.7,1.9,1.3,1.1,4.3-4.9,4.2-4.3.2.4,0,1.2-1.2,2.4-1.4Z"/>
    <path class="st91" d="M694.6,446.4c-1,3.6-2.6,3-5.3,1.4.8-3.2,2.9-2.3,5.3-1.4Z"/>
    <path class="st208" d="M709,445.9c-.1,1.4-.1,3.4,0,4.8-.6.2-1.7-.1-2.4,0-1-1.4-.4-4,1-4.8s1.1,0,1.4,0Z"/>
    <path class="st162" d="M695.5,445.4c-1,.2-4.1-.3-3.8-1.7s2.3-2.1,2.9-2c2.7.5,1.2,2.2.9,3.6Z"/>
    <path class="st270" d="M700.3,441.1c.2.2.3.3.5.5.4.4,1,.3,1,1.4-1.1,0-2.4.8-3.5.4s-.6-1.2-.8-1.4c.1-.3.3-.6.5-1,0-1.1.9-1.1,2.4,0Z"/>
    <path class="st28" d="M697.9,441.1c.7-1.7-.1-3.2,2.2-3.4.4.8-1.4,1.3-1.2,2.1s1.1.9,1.4,1.2h-2.4Z"/>
    <path class="st131" d="M312.5,477.6c.1-.2.3-.2.5,0,.8,1.8,1.6,3.4.5,5.3.3,1.3,0,1.3-1,.5-2.3.5-4.9,2.3-5.7-1.3s1.5-2.2,3.4-3.1.7-.8.8-.9c-.2-1.3,0-1.5,1-.5.1,0,.3,0,.5,0Z"/>
    <path class="st58" d="M313.4,482.9c1.9-.2,3.1,1,2.9,2.9s-1.1,2-1.9,2.4-3.7,1.2-4.6.5c-3-2.2.6-4.4,2.7-5.3s.9-.5,1-.5Z"/>
    <path class="st193" d="M320.6,492.5c-.3,0-.6.2-1-.3-.8-1.1-1.2-3,0-4s5.6-3.4,6.2-.1-3.5,3.1-5.2,4.4Z"/>
    <path class="st281" d="M319.2,487.7c-1.3-.3-2-.1-2.4-1.9s.2-1.8,0-2.4c-.6-1.5,1.5-1.9,1.9-.5,2.1-.5,2.9-2.5,4.3-.2s-1.7,3.5-3.8,5Z"/>
    <path class="st119" d="M312.5,474.2c-4.3-2.4-.4-4.9,2.9-5.8,5.3,2.3,1.5,6.3-2.9,5.8Z"/>
    <path class="st77" d="M321.1,493c1.2-1.1,6.5-3.3,6.7-.5s-3.4,3.8-5.1,3.8-2.9-2.2-1.6-3.4Z"/>
    <path class="st124" d="M316.8,483.4c-.3-.8-2.7-1.1-1.9-3.5s6.9-4.8,6.2-.1-2.4,1.5-2.4,3.2c-.6.2-1.3,0-1.9.5Z"/>
    <path class="st261" d="M314.9,468c-1.7,2.1-5.2,4.2-5.8,0,.2-1.3-.5-1.6,1-2.4s1.8-.9,1.9-1c2.8-.8,5,1.4,2.9,3.4Z"/>
    <path class="st43" d="M313,477.6c-.1,0-.3,0-.5,0,.5-.7.3-2.2,1-2.6s4.3-1.5,4.6-1.5c3.9.1.7,4.7-3,5s-1.5-.7-2-.9Z"/>
    <path class="st325" d="M323.9,472.4c1.3-.1,3,1.5,2.3,2.8s-4.4,2.5-5.1,2.2c-2.8-1.4,0-4.7,2.8-5Z"/>
    <path class="st57" d="M324,469c.3.2.6.3,1,.5,0,.3,0,1.7,0,1.9-1.4.3-5.5,2.7-6.2.7-1.1-3.3,2.7-4.3,5.2-3.1Z"/>
    <path class="st211" d="M324.8,476.7c3.2-.6,4.1,2.5,1.5,3.9-5.2,2.9-6.1-3.1-1.5-3.9Z"/>
    <path class="st24" d="M331.7,488.6c-.6.5-4.2,2-4.8,1.4s-.5-2.8-.4-3c.1-.6,2.5-2.3,3-2.2s2.1,1.4,2.1,1.5c.4.6,0,1.6.1,2.3Z"/>
    <path class="st35" d="M324.6,485.2c-.5-.5-.6-2.1-1.1-2.8,1.3-.2,4.6-2.4,5.6-1,1.5,2.2-2.7,5.6-4.5,3.8Z"/>
    <path class="st198" d="M314.9,468c.1.2.3.4.5.5-2.4,1.7-5.6,2.3-2.9,5.8-.4,0-.4.2-.5.5-1.8.1-3.5.7-5.2,1.6l-1.1-.6c0-.5-1.2-.6-1.4-1l.4-.9c4.5-.5,5.7-1.7,3.4-3.8v-1c1.4.1.9,0,1-1,1.1,2.7,4,1.6,5.8,0Z"/>
    <path class="st132" d="M301.4,460.8c2.1-.7,4.8-.6,4.8,2.2s-1.1.3-1,1.2c1.3,0,1.8.4,2.4,1.4.8,3.2-6.2,4-6.2,1,.3-.8,2.2-.8,2.4-1.9-3.8,2-6.3-2.5-2.4-3.8Z"/>
    <path class="st299" d="M308.2,469c1.3.4,2.7,3,1.9,4.3s-4.9,1.9-5.7,1.5h-.5c0-.8-1.1-3.6-.9-3.8.5,0,1-.3,1.4-.5.4-.8,2.4-1.6,3.4-1.4.1,0,.4,0,.5,0Z"/>
    <path class="st87" d="M301.4,460.8c-4.3,1.1-4.8-5.1.3-5.2s2.8,1.9,2.6,3-2.5,2.1-2.8,2.2Z"/>
    <path class="st256" d="M298.9,465.2c2-.2,2.9,3.6.5,4.8s-5.1,0-4.1-2.7,3.1-2.1,3.6-2.2Z"/>
    <path class="st298" d="M293.8,465c-.2-.3-.2-3.6,0-3.7s3.7-1.1,4.3-.8c1,.6,1.3,2.9.5,3.9s-4.2,1.6-4.8.6Z"/>
    <path class="st133" d="M293.3,450.7c2.3.8,3.4,1.7,1.9,4.3,6.3,1-2.3,10.9-2.9,1.3.2-.9,2.3-.3,2.9-1.3-1-.2-2.3.1-3.4,0,0-.6,0-.6-.5-1-.5-1.4,1.2-2.3.5-3.4.4.1,1.1-.1,1.4,0Z"/>
    <path class="st98" d="M296.7,452.2c.1-.1,3.8-1,4-.9,2.8.8.7,5.5-2.7,4.7s-1.7-3.3-1.3-3.7Z"/>
    <path class="st160" d="M307.7,465.6c.4.8.8,1.5.5,2.6s-.7.2-1,.3c-.7.8-2.3,1.5-3.4,1.4-2-.3-3.3-.5-2.4-3.4,2.3,1.3,4.7,1.4,6.2-1Z"/>
    <path class="st198" d="M307.7,469c-.3,0-2.7,1.2-3.4,1.4,0-.2-.3-.4-.5-.5,1.1-.6,2.2-.9,3.4-1.4l.5.5Z"/>
    <path class="st249" d="M320,496.9c2.1-.2,2.7,2.6,1.6,4.1s-5.4,2.6-6.6,1.7c-3.3-2.7,2.8-5.5,5-5.7Z"/>
    <path class="st183" d="M323.5,501.6c0,1,.6,2.1.5,3.1-.2,1.9-6,4.1-7,2.7s-.4-3.6-.2-3.8,6.3-2.2,6.6-2Z"/>
    <path class="st56" d="M314.4,488.2c1.8-.7,3.2-.8,3.7,1.3s-.8,2.2-2.8,3.5c-1.2.2-3,.7-4,.5s-1-2.7-.6-3.4,3.3-1.8,3.6-1.9Z"/>
    <path class="st306" d="M327.7,495c1.6-.3,3.1,2.5,2.3,3.8s-5.9,2.6-6.5,2.2-1.1-2.5-.7-3.2,4.4-2.7,5-2.8Z"/>
    <path class="st153" d="M315.4,493c1.1-.1,3-.9,3.9-.3s1,2.3.9,2.8-6.6,4.4-7.2,1.5.6-2.8,2.4-4.1Z"/>
    <path class="st123" d="M320.2,513.1c.2-.3,5.7-2.3,6-2.3.7,0,1.7,2.2,1.6,2.9-.2,1-4.4,3.2-5.5,3.2s-2.5-3.2-2.1-3.8Z"/>
    <path class="st26" d="M331.2,499.7c.2.1.6,1.7.5,2.1-.2,1.5-3.9,3.3-5.2,3.5-1.9.3-2.8-2.9-2.1-3.5s6.3-2.4,6.7-2.1Z"/>
    <path class="st258" d="M323.9,506.5c.3,0,.5-.1.8,0,4.2,3.4-3.2,6.5-5.5,5s-1.1-2.2-.7-2.7,5.1-2.3,5.4-2.3Z"/>
    <path class="st110" d="M312,474.7c-.2.8.1,2,0,2.9-.3,0-.7.3-1,.5-2.1-.1-3.6,1.5-5.8,1-.5-1.2.4-2.8.5-3.4,1.9-.7,4.5-2.8,6.2-1Z"/>
    <path class="st4" d="M300.6,481.1c.2-.2,4.1-1.6,4.4-1.5,1.5.5,1.8,4-.5,5.1-4,2-5.1-2.6-3.8-3.6Z"/>
    <path class="st274" d="M301.9,486.2c1.7.4,3.7-2.2,4.9-1.9,4.7,1.1-3.6,11.1-4.9,1.9Z"/>
    <path class="st301" d="M306.3,495.4c.2-.2,4.6-1.5,4.9-1.5,2,.6.9,6.5-3.7,5.2s-1.8-3.1-1.2-3.7Z"/>
    <path class="st216" d="M308.5,489.2c2.1,0,2.9,4.4-1.5,5.3s-3.2-5.2,1.5-5.3Z"/>
    <path class="st239" d="M315.8,507.8c-.5.9-4.9,1.9-5.6-.3s1-3.3,3.6-3.5,2.9,2.3,2,3.7Z"/>
    <path class="st80" d="M313.4,498.7c0,2.8.9,5-2.7,5.3s-3.3-2.9-2.5-3.8,5-1.8,5.2-1.5Z"/>
    <path class="st165" d="M321.1,517.5c.2.1,1.1,3.6,1,3.8-1.2-.5-3-1.9-3.3-3.1s2-.8,2.3-.6Z"/>
    <path class="st244" d="M683,507.8c-4.4-.6-9.1-1.4-6.2-6.7,3.5,1.7,8.3,1.6,6.2,6.7Z"/>
    <path class="st118" d="M678.3,501.1c-.2-.2-.1-3,0-3.5.7-2.1,6.8.8,7.1,2.3s.3,2.9-1.2,3.1-5.7-1.8-5.9-2Z"/>
    <path class="st329" d="M688.8,489.1c-2-1.5-5.4-1.2-4.8-4.5s1.2-1.9,2.5-1.6,4.5,1.7,4.6,1.9.2,2.4,0,2.8c-.3,1.2-1.5,1.2-2.4,1.4Z"/>
    <path class="st272" d="M688.3,489.6c1,.7,1.5,2.3.7,3.4-1.2,1.6-10.1-1.3-7-4.8.3,0,1-.6,2-.4s3.8,1.6,4.2,1.8Z"/>
    <path class="st18" d="M687.3,494.5c.2.4.2,2.5,0,3-.7,2.1-6.9-.9-7.2-2.3s.2-2.5.8-2.7c1-.2,6,1.5,6.3,2Z"/>
    <path class="st156" d="M673.3,510.7c.3,0,6,2.1,6.2,2.3.4.5.4,2.4,0,2.9-.9,1.3-5.6,0-6.5-1.2s-.9-3.7.3-4.1Z"/>
    <path class="st154" d="M680.6,488.2c-.2,3.2,1.2,4.6-2.8,3.5s-4.2-1.5-3.9-3.5c1.4-4.3,4.5-.5,6.7,0Z"/>
    <path class="st289" d="M670.1,498.7c.3-1.1-.4-3.7,1.7-3.7s5.4,2.3,5.5,2.6c1.5,5.8-4.8,2-7.2,1.1Z"/>
    <path class="st74" d="M681.6,508.3c0,3.4-.5,4-4,3.2s-3.8-5.8-2.2-5.4,3.9,2.7,6.2,2.2Z"/>
    <path class="st10" d="M690.2,504.5c.4.4.2,3.8-1.3,4.2-5.2,1.6-6-4.4-3.7-5.1s4.8.8,4.9.9Z"/>
    <path class="st267" d="M695.4,494.3c-1.6,1.6-7.5-1.6-5.2-4.5s8.1,1.5,5.2,4.5Z"/>
    <path class="st147" d="M683.3,508.4c.3,0,4.6,1.6,4.8,1.9,1.7,2.4-3.1,4.6-5.6,2.2s-.3-3.8.8-4.1Z"/>
    <path class="st190" d="M689.1,494c2.3-.7,6.8,3.3,4,5s-6.6-4.2-4-5Z"/>
    <path class="st283" d="M692.1,500.2c.4.6-.2,2.6-1,3-4.9,2.1-5.9-3.8-3.9-4.4s4.8,1.2,4.9,1.4Z"/>
    <path class="st274" d="M697.9,466.1c.2.1.8-.3,1,.3.9,3.6-2,4-4.8,3.1.1,1,2.8,1,2.9,1.7.2,1.2-.9,2.6-1,3.5-5-1.1-6.7.8-5.8-5.3.3,0,1.8-.4,2.4-.5,0-1.2,5.3-2.8,4.9-1.9l.4-1Z"/>
    <path class="st249" d="M687.4,469.4c1.5.8,2.1,4.1.5,5.1s-5.5-1.2-6-2.2c-.8-1.6,1-4,2.8-3.8s2.6.8,2.8.9Z"/>
    <path class="st138" d="M686.9,478.1c1.1.1,6.1,1.8,6.5,2.4s-.3,2.9-.7,3.2c-1.1.8-5.5-.6-6.3-1.5-1.3-1.4,0-2.7.5-4.1Z"/>
    <path class="st233" d="M683,483.4c.7,1,0,3.6-1.6,3.8s-3.6-1-4.3-1.5c-1.6-1.2-.6-3.8,1-4.2s4.7,1.7,4.9,1.9Z"/>
    <path class="st168" d="M682.1,477.6c.6-1.3,1.5-.9,1.4.5.3.1,1.8.9,1.9,1,.1.1-.4,3-.5,3.2-.9,1.3-6.1-1.2-6.2-1.7-.7-2.9.9-3.7,3.4-3Z"/>
    <path class="st255" d="M700.3,483.4c-.2.3-.4.7-.5,1-2.4,2.2-7.6-1.2-5.5-4.3s7.2.9,6,3.4Z"/>
    <path class="st139" d="M695,475.7c.1.2.2,2.6,0,3-.3,1.6-6.7-1.1-6.8-1.4-.2-.8-.1-2.7.8-3s5.6,1.2,5.9,1.4Z"/>
    <path class="st266" d="M695,460.3c-.7.3-.9,1-2.1,1s-4-1.4-4.2-2.6c-.6-4.4,7-3,6.3,1.7Z"/>
    <path class="st215" d="M698.9,460.8c1.1.6,1.3,1.7,1.9,2.4-1.7,3.3-1.5,2.1-4.8,1.4-.9.8-1,.7-1-.5-2.2-1-.2-2.4,0-3.8.9-.4,3,0,3.8.5Z"/>
    <path class="st19" d="M690.2,469.4c-.7,0-2.3.1-2.9,0s-2.9-1.6-2.9-1.8c-1.2-4.9,6.2-3.5,6.3-.4s-.4,1.5-.5,2.2Z"/>
    <path class="st221" d="M698.9,460.8c-.2,0-3.3-2-3.3-2.2.9-3,2.2-4,5.1-2.2s1,5.1-1.8,4.4Z"/>
    <path class="st260" d="M703.1,471.4c.5.9,0,3.3-1.2,3.7-4.4,1.2-6-4.5-3.2-5.1s4.3,1.2,4.4,1.4Z"/>
    <path class="st80" d="M701.8,479c-.6,1.5-5.4.5-5.7,0s-.2-3.6,0-4.3c2.1.5,7,1,5.8,4.3Z"/>
    <path class="st106" d="M693.1,464.2c.7,1.2.3,1.5-1,1-1.3.9-5.8-1.4-5.7-2.6.4-3.8,7.3-1.6,6.6,1.6Z"/>
    <path class="st206" d="M682.1,477.6c-5.4-5.5,2.1-3.8,5.2-1.9.2.3-.3,1.8-.4,2.4-1.1-.1-2.3,0-3.4,0-.3-.1-1.1-.4-1.4-.5Z"/>
    <path class="st226" d="M695,464.2c.6.1.6.3,1,.5.5.3,1.2,1,1.9,1.4.5.9,1.1,1-.2,1.5s-3.5,1.1-5.1,1.4c-1.1-1-1.2-2.6-.5-3.8s.9-.9,1-1c.3,0,1.6,0,1.9,0Z"/>
    <path class="st111" d="M704.2,469.9c-.5,0-1,.6-2.1.5-3.6-.4-3.5-4.1-1.2-5.1s3.4.8,3.6,1.2c.8,1.1-.3,2.5-.3,3.4Z"/>
    <path class="st305" d="M700.8,463.2c.3-.6.2-2.5,1.7-2.8s3.5.7,3.6,1.2c.2.7,0,3.9-.8,4-2,.4-3.3-1.2-4.5-2.4Z"/>
    <path class="st336" d="M702.8,459.3c-.5-.8-.2-3.5.9-4s4.1,1,4.3,1.5-1,3.3-1.7,3.5-3.2-.7-3.4-1Z"/>
    <path class="st282" d="M673.8,476.7c.7,0,4,.9,4.3,1.3s0,1.2-.3,1.7c-1.8,4.4-9.3-2.3-4-3Z"/>
    <path class="st29" d="M685,456c1.2,1.7,4,.5,2.5,3.7s-9-3.7-2.5-3.7Z"/>
    <path class="st286" d="M678.2,464.6c.6,0,1.2-.5,2-.4,3.5.5,4.5,4.7,1.1,4.7s-3.4-1.3-3.5-1.5c-.5-.8.2-2,.4-2.8Z"/>
    <path class="st232" d="M677.8,472.8c1,1.1,2.9,1.9,1.5,3.6s-4.5.2-5.1-.8.1-2,.3-2.9c1.5-.1,1.9-.1,3.4,0Z"/>
    <path class="st82" d="M677.8,472.8c-1-1-3-1.8-1.5-3.6s4.3-.4,4.8.4.2,3.1-.4,3.6-2-.2-2.9-.3Z"/>
    <path class="st321" d="M671.4,481c.7-.2,3.9.4,4.3.9s-.3,3.3-.7,3.7c-1.8,1.4-6.6-3.5-3.6-4.6Z"/>
    <path class="st224" d="M681.5,459.9c1.4-.3,6.1,3,3,4.5s-6.3-3.7-3-4.5Z"/>
    <path class="st164" d="M368.2,483.8l.7,2.8c-7.7,81.9,59.8,152.6,142.6,145.7,53.8-4.5,100.4-43.1,115.3-94.8l1.6-2.3c3.1-.5,4.7,1.5,4,4.7-2.4,7.5-5,15.3-8.3,22.7-7.4,20.5-32.6,45.4-50.9,56.8-67,41.8-154.7,18.2-193.4-49.6s-11.8-25-14.9-37.9c0-2.3-.3-4.7-1-7,.6-.4,1.2-.6,1.7-.1.1-9.8-.4-19.5-1.6-29.1-.5-2.4-.2-11.9,2.7-12.8s1.6-.2,1.5,1.1Z"/>
    <path class="st61" d="M583.2,390.2c10.9,7.1,19.8,17,27.6,27.4s1,.7,1.2.9c28.8,39.4,34.9,91.6,15.9,136.6-1,2.4-2.3,5.4-3.9,7.4,1.6-4.5,2.8-9.5,4.3-14.2s4.5-9.4,2.7-11.8-2.3,0-2.7-1.4l-.2-3.2c5.5-23,5.1-47.2-1.7-69.9v-3.2s1-.6,1-.6c2.5,1.7,2.5.5,1.9-1.9-1-3.9-5.7-15.9-7.8-19.1-11.1-16.6-22.7-30.9-37.3-44.6-.5-.8-.8-1.6-1-2.5Z"/>
    <path class="st145" d="M535.7,366.7c1.6.4.6,3.5-1,3.7-2.2-.7-4-.5-5.3.6l-2.8.4c-72.4-15.4-147.6,36.1-157.2,109.9l-1.3,2.5c-2.1-1.7-3.3,4.4-3.4,5.5-.4,6.3,1,13.1,1.4,19.2s-.3,12.1.5,18l-2.4-1.4c-.1,2.3,2.1,4.4.5,6.7-24.1-101.6,70.3-191.8,170.9-165.1Z"/>
    <path class="st324" d="M583.2,390.2c10.6,11.7,23.2,22.6,31.9,36,2.4,3.7,4.8,7,7.2,10.6s7.7,17.9,7.9,19.4c.7,4.4-.4,4.6-3.8,2.6l-1.7-2.1c-14.8-41.2-50.6-73.3-92.9-84.2l-2.3-1.5v-1.2c.9-1.7,5.2,0,5.8-.4l.5-2.7c12.9,3.4,38.6,13.7,47.5,23.5Z"/>
    <path class="st42" d="M529.4,371c44.1,10,82.9,44.8,97,87.8,8.1,24.6,8.5,51.4,1.9,76.3-14.6,55.2-64.8,96-122.1,98.4-82.6,3.4-147.3-68.4-138-149.8,8.8-77,85.9-130,161.3-112.8Z"/>
    <path class="st200" d="M588.3,402.9c70.1,62,52.4,177.6-31.8,217.2-80.6,37.9-175.1-13.9-186.8-101.5-16.2-121.7,126.6-196.9,218.6-115.6Z"/>
    <path class="st53" d="M543.2,402.9c5.3,5.4,9.2,12,13,18.5,30.2-7.9,61.6,9.6,67.7,40.8,5.4,27.3-11.1,52.5-37.1,60.6-.6.9.7,3.2,1,4.3,11.2,48.7-25.2,82.4-72.5,80.6-2.2,0-6.2-1.1-8.1-1s-6.6,2.9-8.9,3.6c-11.5,3.2-34.3,2.4-45.2-2.8-8.2-3.8-25.2-19-30.1-26.6s-6.2-13.7-7.5-20.8c-14.5-6.3-27.3-20.3-31.7-35.5-7.2-25-4.4-40.2,10.2-61.3s21.6-21.3,37.8-24.6c2.6-15.4,8.1-27,20.2-37,19.1-15.8,37.7-21.4,62-14.1s21.8,7.5,29.2,15.2Z"/>
    <path class="st177" d="M484.8,460.3c.2-.2.4-.4.7-.6.7-.5,12.3.3,12.4,1.9l.9-.3c19.6,26.4,20.2,58.3-1.5,83.7-3.4,4-14.7,14.3-19.7,15.1-9.8,4-19.9,6-30.3,5.8-2.5-1.6-.3-2.9,1.7-3.5-4.3-1.4-4.7-2.7-4.9-6.9-2.6-.5-5.4-.2-8,.3-2,1.9-4.5,1.7-6.9.7-2.3,1.9-6.4.8-7.8-1.6-3.9-1.1-5.2-2.6-3.7-4.4.5-.8,1.4-1.4,2.8-1.8-7.7-1.1-8.7-4.4-7.6-11.7-.1-1.3-.5-2.3-2-2.3-3.6.7-6.3.6-9.6-1l-1,.5c-1.8.4-2.3-1.3-2-2.9-5.6.3-15.1-1.4-9-8.6-.2-3.6-1.6-6.9-4.2-9.9-1.2-1.7-1.4-3.2-.2-4.9-5.9-.9-1.8-6.4,2-5.9l.9.5c-.3,2.5,4.9,11.5,5.8,5.5-1.4-4.1-1-8.9,1.5-12.5,3.7-2.2,6.7-4.8,6.3-9.5l.9-.8c0-1.8,1.8-1.6,2.9-.6,2.1,1.9.7,6.9-.5,9.1,0,1.6,1.6,2.4,4.8,2.4l.5,1.1c.3.9-.2,1.8-1.7,2.7-.4,8.3,7.9,1.2,8.9-2.7l.9-.5c0-.2,0-.4.1-.6,1.1-2.3,9.8,8,5.6,10.2-1,0-2.2,0-3.5-.5-2.5,1.2-5,2-7.5,2.2-3.2-1.8-12.4-.3-12.7,4s3.7,6.1,4.7,3c.7-3.5,2.5-5.2,5.4-5.1,4.4.8,8.4.7,12.2-.2.3-1.3.7-2.3,1.4-2.9,3-.7,4.2-.7,6.5,1.8,3.5-.5,5.5.7,5.9,3.5l.6,1c-.7,2.4-2.9,15.4,2.7,11.2s7.9-16,.2-13.9l-.7-.7c-.3-.3-.7-.8-.5-1.1.9-2.4,11-10.6,14-7.6,1.9-1.7,3.3-2.2,4.3-1.4,0-.4.1-.7.4-1,10,2.9,13.5-1.5,1.1-2l-.6-.9c-.2-.4-.1-.8.2-1.2,5.5-.7,10.6-3.1,6.4-9-.5-.9-.1-1.8.5-2.6-1.7-2.4,1.2-4.3,2.7-1.8,1.3-1.9,5.1-2.6,6-.3.3.2.7.6.6.9-1.9,6.8,6.8-.3.5-.5l-.6-.9c-2.7-1.2,1-2.1,2.7-1.9,4.4-1.7,7.2-1.1,8.3,1.9,1.2.1,2.5.9,3.8,2.2,11.7-.7,2.3-15.3-1.3-20.3-1.9-.4-2.9-1.1-3-2.1Z"/>
    <path class="st340" d="M514.6,509.3c.5-6-.5-11.9-.7-17.8s-.5-.7.5-.5c1.7.3,9.6,5.8,11,7.2,2.2,2.1,4.2,5.7,6.2,8.2s3.6,3.3,5,5c16.8,21,12,57.9-5.5,77-6.6,7.2-24.3,18.6-33.7,21s-30.2,1.8-39.4-1.2c-11.2-3.7-30.1-20.7-35.7-31s-4.4-11.1-5.7-16.9c.7,0,1.7.5,2.4.7-.5,3,2.4,4.8,4.8,6,5.1,2.6,11,4.3,16.6,5l.3,1.3-4.9.7c-3.4,5.8,4.2,5.6,8,5.3,2.4,0,4.6.9,5.8,3.2,2.6,1.9,7.1-1,4.8-4.9s-.1-.8,0-1.1l.4-1c28.8-1.8,55.8-23.4,59.5-53.2l1.1-1.5c.4-1.4.3-2.4-.4-3.3.7-3.1.5-5.8-.6-8.3Z"/>
    <path class="st340" d="M518.9,469.9l-.2,4.2c-.6.1-.4.3.2.6.1,3.3.6,6.4,1.2,9.6l4.3,12c-1.6-2.6-9.8-5.4-11-7.2s-2.7-8.8-3.9-11.5c-4.9-10.9-11.8-21.5-21.9-28-16.4-10.7-34.9-17.1-54.4-10.8-1,0,2.8-12.5,3.2-13.6,8.6-23.7,38-41.6,63-39.7s24.8,6.3,32.4,10.3,17.4,15.8,23,25.9c-20.7,8-35,25.6-36,48.2Z"/>
    <path class="st121" d="M498.7,461.3c.2,2.2-1.9,0-2.6,0-4.1-.2-7.3-.9-11.3-1l-.7.9c-4.8-.4-5.1,0-4.1,4.6-.7,1.9-.6,3.3.4,4.2,5.8-.5,12.9,4.3,5.5,8.3.1,1,0,1.8-.6,2.1-.6-.5-2-1.8-2.6-1.9-2.2-.1-5.6,1.5-8.2.9-.6,0-.2.8-.3,1,.6.7.3,1-.5.5-1.6-.3-3.3-.8-4.8.3s-.9,1.6-1.2,1.6c-.8,0-.9-2.7-2.2-1.7s.4,1.1.3,1.9-.9,1.2-.7,1.9,1,.9,1.3,1.6c.7,1.9.5,4.6-.6,6.3s-5.9,1.7-7.9,2.9c-.2,1.3-.5,2.6-1,3.8-1.4,0-3.3,2.2-4.2,2.3s-1.5-.8-2.4-.9c-1.3-.1-6.5,3.6-7.8,4.6s-3,2.7-3.4,4c.4,1.3-1.7,3-2.9,2.4-1.7.2-1.2-2-2.2-2.3s-2.5.1-3.7-.2-2.2-2-3.1-2.2c-1.6-.4-2.8,1.3-3.5-.6-.4,0-.4-.3,0-.5,0-1.3.2-3.2-.2-4.3s-3.6-4.7-3.8-4.8c-.7-.5-1.6-.3-1.7-.4l-.5.4c-1.6-1.9-3.8-1.7-6.6.6l-1-.5c-1.7-.6-5-.2-6-1.9s.9-3.9,1.2-5.5.1-6.2-2.8-4.5l-1.1-.5c-4.9-8.1-7.4,1-6.4,6.1-3.3,2.3-4,4.3-4.8,8.2-.6,2.1-1.6,3.1-3,2.9-.6.6-2.9,1.9-3.5,2.4s-.6.7-.7,1.2c.6,1.3,2,1.3,3.2,1.2.4,1.4-1.1,2.4-.9,3.5.2,1.6,4,6,4.6,7.9s.8,3.7.6,4.7c-.3,1.6-2.6,1.8-1.8,4.2,1.3,4.5,8.8,2.3,11.9,3.7-2.2,2.3-1,1.6,0,3.4,1,0,1.8.7,2.5,2.1,2.1,1.5,3,2.9,2.8,4.2.3,1.7.3,2.2,1.9,2.9h1.2c1.8,3.1,4.6,5.1,8.4,6.1l.5,1.1c-.2,2.8,2.8,2.5,4.3,3.6s.8,1.4,1.1,1.5,3.3,1,3.6,1c1.1,0,1.8-1.1,2.3-1.2s2.3,1.1,4.3.8,1.7-1.2,2.9-1.5,7.4-.9,8.6,0,.4,3.9,1,4.9,4.4,1.8,4.6,2.6c.3,1.4-3.1,1.3-3.4,2.6,7,1.3,14.4,0,21.2-2.1s5.5-2.1,9.5-2.7c-15,6.6-31.3,9-47.3,4.3-20.3-5.9-39-18.4-45.4-39.6s-4.2-40.9,10.7-61.8c11.1-15.6,26.1-22.5,44.9-25.2,20-2.9,46.1,7.2,58.2,23.4Z"/>
    <path class="st213" d="M546.2,528h1.5c10.1,7.5,25.1,11.1,36.9,5.9,1-1.1,1.9-2,2.9-2.5,8.7,47.5-29,76.6-73.4,74.9l.8-1.3c15.9-6.6,30.1-21.9,32.3-39.2-1.3-.8-1.8-1.7-1.4-2.7,3.1-10.8,3.8-24.2.5-35Z"/>
    <path class="st253" d="M610.3,506.6c-36.1,38.7-100.7,5.7-89.1-46.2,6.6-29.9,37.4-46.6,66.5-37.4,35.5,11.2,48.3,56,22.6,83.6Z"/>
    <path class="st3" d="M513.1,517.4c.9.5,1.1.5.6,0,1.9-.9,2.5.2,1.8,3.4-1.4,25.3-25.1,49.3-49.5,53.9l-11.4,1.8-1.1.5c-5.2-2.3-11.1-2.5-16.7-2l-.9-.8,4.8-1c-5.1-.3-19.6-4.5-22-8.9s-1.1-2.4.4-3.1c4.5,1.8,8.7,3.8,13.4,5,35.4,9,72.1-13.4,80.6-48.7Z"/>
    <path class="st175" d="M546.2,528l-6.5-14.4c12.7,9.7,29.8,13.6,45.3,9.1,1.2,2.8,1.9,5.7,2.4,8.6-.8,3.1-2.9,3.8-5.7,4.7-11,3.5-27-.5-35.6-8Z"/>
    <path class="st331" d="M545.8,563c-.2,1.6,1.8.6,2.3,2.3s-2.5,11-3.7,13.4c-2.9,6.4-9.4,13.9-14.7,18.4s-10.1,7.5-15.6,9.1c-.9,0-1.7,0-2.6,0s-2.6-.2-2.7-.9c11.9-5.7,23.3-13.9,30-25.4,2.7-4.6,5.5-11.7,7-16.8Z"/>
    <path class="st185" d="M518.9,474.7c-1.5.4-1.3,2-2.9,3.1s-3.1,1.8-4.6.8c-4-2.9,0-10.3,4.6-7.4s1.4,1.9,2.4,2.6l.5-3.8c0,1.5,0,3.3,0,4.8Z"/>
    <path class="st73" d="M514.6,509.3l.5.2,1-2.2c.6,4.5.5,9-.5,13.4,0-1,0-1.9,0-2.9-1.3.1-2.7,1.3-2.4-.5.5-2.1,1.3-6,1.4-8.2Z"/>
    <path class="st265" d="M484.8,460.3c1,.7,2.1.5,3.3,1.2,2.2,1.4,7.6,12.6,7.7,15.3s-1,5.3-3.8,6.3c-4.1,1.6-4.4-.5-6.8-2.7-2.2-4.9,4.3-2.5,2.5-6.6s-7.4-.9-8.9-4.1.2-2.6.1-4-1.2-3.6.2-5,4.2-.5,5.5-.5Z"/>
    <path class="st48" d="M386.9,502.1c3.2-3.3,2.3-5.9,3.9-8.8s2.7-1.9,3.1-2.7c.6-1.1-1.5-5.5,1.4-8.7s6.4.3,7,3.4-.7,6.6-3.1,8.6-3.4,1.5-4.3,3.8-1.2,4.7-1.2,5.6c0,2.3,2.3,5.6-.2,7.5s-7.1-6.1-6.5-8.7Z"/>
    <path class="st242" d="M423.8,506.4c0,.2,0,.3,0,.5,0,1,.2,1.9-.2,2.9-1.9,4.2-12.8-.3-16.2,1.9s-1.5,9.5-6.8,3.4c-4.8-5.5,4.5-9,9.1-8.7s2.9,1,4.2.8c3.4-.3,6.4-4.5,10-.9Z"/>
    <path class="st99" d="M417.6,550.6c-1.9-.1-6.7-2.8-8.1-4.1s-1.2-2.1-1.9-3.1c-1.4-.1-2-1.6-1.9-2.9-2.3-2.7-3.3-2.6-5.3-6.2-.5-3.2,3.8-.2,5.1,0,3.1.5,7.6-2.4,8.3,2.2s-2.4,8.1,2.7,10.2,4.8.8,5,1.7c.3,1.4-2.7,2.2-3.8,2.2Z"/>
    <path class="st296" d="M436.3,512.2c.3-.6,2.3-2.1,2.9-2.4,2.8-1.2,5.6.7,5.7,3.6s-3.3,10.4-4.3,11.4c-1.8,1.8-5,1.1-5.6-1s.3-6.7.4-7.6.4-3.2,1-4.1Z"/>
    <path class="st181" d="M467.6,537.5c-1.2-1.9,2.8-7.5,4.2-8.8s7.1-4.5,8.5-2.7-1.4,3.1-2.2,4.1c-2,2.6-4,7.5-7.5,7.9s-2.7,0-3-.5Z"/>
    <path class="st314" d="M462.1,547.3c3.3-.6,8,1.3,3.9,4.9-3,2.7-12.7,5.4-16.7,5.8s-2,.3-1.9-.5,5.2-2.1,6.4-2.7c3.3-1.9,5.6-7,8.4-7.5Z"/>
    <path class="st115" d="M480.6,542.8c-1.1-1.1,0-5.2,1.1-6.1,2.2-2.2,4.2.2,5.4-.3s3.4-6.1,5-3.8c3.5,5.1-7.7,13.9-11.4,10.2Z"/>
    <path class="st161" d="M432.8,545.4c3.3-.4,6.3.5,5.9,4.4s-13.6,3.2-12.5-.9,4.7-3.4,6.5-3.6Z"/>
    <path class="st285" d="M418.1,496.8c.1,1,0,1.7-.5,2.6s-5.1,4.9-5.4,5.1c-2.8,1.6-6.4-2.4-4.6-5.1s2.1-1.8,2.4-2.1c.8-.6,4.2-2.4,5.1-2.4,2.4,0,2.1,1.2,3.1,2Z"/>
    <path class="st178" d="M457,499.7c-.9-1.2-.6-3.5,1-3.8s9.7.3,9.5,3-8.3.7-10.5.8Z"/>
    <path class="st288" d="M479.4,509.1c-2.9,2.4-7.1-1.9-4.2-4.4,3.3-2.8,8,1.3,4.2,4.4Z"/>
    <path class="st66" d="M473.8,481c0-.1.4-.3.5-.5,7.4-1,2.6,8.3-.8,4.4s-.5-2.4.3-3.9Z"/>
    <path class="st263" d="M412.7,523.3c4.5-1.3,4.5,6.9-.2,4.8s-1.9-4.2.2-4.8Z"/>
    <path class="st295" d="M488.3,506.5c2-2.3,6.2-2,4.9,1.8s-7.4,1.1-4.9-1.8Z"/>
    <path class="st328" d="M457.9,517.4c-.3-1.2.2-6.6,2.1-5.7s1.1,6.8-2.1,5.7Z"/>
    <path class="st313" d="M394.6,520.8c-.7.1-.7-.8-.8-1.3-.7-2.4-.7-4.8-.6-7.3,2.9.9,2,6.3,1.4,8.6Z"/>
    <path class="st9" d="M443.4,536.2c1.4-.1,2.6,3.3-.1,3.8-4.2.7-2.9-3.5.1-3.8Z"/>
    <path class="st182" d="M503,498.7c.2.2-.1,2.7-.4,3.1-1.6,2.1-2.6-3.1.4-3.1Z"/>
    <path class="st7" d="M454.6,576.5c4.7,3-1,9.8-5.3,6.9s-.9-1.4-1.5-1.9c-3.7-3-10.7.8-13.1-3.2s-1.3-3.9,1.2-4.3c5.1-.8,14.3-.4,18.7,2.4Z"/>
    <path class="st311" d="M494.9,589.5c0,0,1.1-.2,1.6-.6,3.2-2.4,4.5-9,7.2-10.1s6.6.7,9.7.1c2.7,1.1,1.2,2.7-.2,4.1s-9.3,7.6-10.7,8-9.3,1.1-7.5-1.5Z"/>
    <path class="st152" d="M530.1,557.6c2.3,1.7,6.1-2.7,5.6.9s-6,8.8-6.7,9.1c-3.3,1.4-9.9-1.7-9.6-5.2s5.7-7.1,7.8-6.9,2.1,1.6,2.9,2.1Z"/>
    <path class="st68" d="M529.3,516.2c2.9,2.9,5.2,12.2,2.1,15.5-1.9,2-3.9-.7-3.9-2.9,0-3.5,6-5.4.8-8.5s-11-2.2-9.8-10.6c1-7,3.9.9,5.4,2.5s3.9,2.5,5.4,4Z"/>
    <path class="st212" d="M469.3,579.9c2.8-.5,5.5,4.7,3,5.9-3.7,1.8-7.6-5-3-5.9Z"/>
    <path class="st264" d="M516.4,546.8c1.8,1.1-.2,4.2-2.6,4.2-4.7,0-.2-6,2.6-4.2Z"/>
    <path class="st30" d="M487.5,580.9c3-.5,1.6,4.8-1.3,4.1s-.6-3.8,1.3-4.1Z"/>
    <path class="st247" d="M490.9,587.6c2-.2.9,2.9-1.5,2.3s.7-2.3,1.5-2.3Z"/>
    <path class="st189" d="M522.6,419.2c1.1,1.1.3,5.5.6,7.3s2.3,4.7,3.4,5.7c2.9,2.6,7.4,1.8,2.8,6.7s-6,3.9-9.2,1.3-4.9-6.2-5.1-6.5c-1.9-3.6,2.6-6.1,3.9-9.5s.8-7.8,3.6-5Z"/>
    <path class="st21" d="M459.7,410.5c1.1-.2,5.6.7,6.9,1.1,2.3.7,4,2.6,6.4,2.1s3.7-3,4.6,0c1.4,4.7-9,9.6-12.5,8.7s-2.3-2-3.3-2.5c-1.6-.8-5.4-.7-6.1-3s2.3-5.9,4.1-6.3Z"/>
    <path class="st176" d="M500.1,395.1c2-.1,10.6,2.3,10,4.7-1.6,5.8-15.8,4.5-16.1-.3s3.9-4.3,6.1-4.4Z"/>
    <path class="st309" d="M493.4,426.2c.7-3.9-5.8-6.2-4.4-9.5,2-4.6,10.2,1.5,9.2,6.3s-3,3.3-4.8,3.1Z"/>
    <path class="st63" d="M532.2,407.1c4.7-1.4,7.8,8.6,2.2,9.4s-4.3-8.8-2.2-9.4Z"/>
    <path class="st284" d="M452,426.8c3.8-.6,5.4,3.8,3,5-4.7,2.3-9.2-3.9-3-5Z"/>
    <path class="st238" d="M476.5,436.4c5.7-.7,4.9,5.4-1.6,4.2s-2.1-3.8,1.6-4.2Z"/>
    <path class="st84" d="M488,426.3c3.6-.9,5.7,8.4.4,5.6s-3.2-5-.4-5.6Z"/>
    <path class="st252" d="M505.3,451.3c2.3-.8,6.7,2.3,5.2,4.3-2.5,2.7-8.1-3.4-5.2-4.3Z"/>
    <path class="st141" d="M529.8,424.9c2.5,0,3.5,3.1,1,4.3-4.4,2.1-5-4.2-1-4.3Z"/>
    <path class="st245" d="M505.8,421c4.6-1.5,3,6.9-.3,4s-1.2-3.5.3-4Z"/>
    <path class="st262" d="M477.6,423.8c1.4,1.4-2.7,4.3-3.4,2.2s3-2.6,3.4-2.2Z"/>
    <path class="st291" d="M503.4,413.8c2.3-.6,1.9,3,.3,3.3s-2.4-2.7-.3-3.3Z"/>
    <path class="st126" d="M448,461.1c-1.9-2.2,1-3.8,2.3-5.1-4.6.6-9.2-2-6.3-7.1s9.6-4.3,12.6-2.3-1.6,6.5-1.4,7.6,4.7,2.5,2.6,6-7.6,3.3-9.7.9Z"/>
    <path class="st129" d="M412.8,459.8c0,0,0,.9-.8,1.4s-2.4.5-2.6-.3c-.8-3.3,2.6-2,4.9-3.2,3.8-1.9,2.8-5.5,5.4-8s4.6-.5,4.1,3.1-5.3,9.4-9.1,8.2-1.7-1.4-1.9-1.2Z"/>
    <path class="st230" d="M443,445c-1.6,5.5-5.8,8.5-11,4.5s2.7-3.3,4.5-3.6,4.1-1.5,6.5-1Z"/>
    <path class="st46" d="M400,473.6c-2.9-2.9,5-8.5,6.9-4.7s-4.6,6.9-6.9,4.7Z"/>
    <path class="st0" d="M430.4,481.5c4-.6,4.8,4.6.6,5.9s-5.6-5.2-.6-5.9Z"/>
    <path class="st277" d="M430.5,461.3c.7,1.2,0,3.7-1.5,4.4-5.4,2.3-6.3-5.2-.6-4.9s2,.3,2.1.6Z"/>
    <path class="st302" d="M435.2,494.5c2.8-.2,3.2,3.5.3,5.1-4.5,2.4-4.5-4.7-.3-5.1Z"/>
    <path class="st335" d="M468,469c3.7-2.3,6.2,3.3,2.9,4.8-.5.1-.8.9-1.6.9-3.5-.1-3.4-3.5-1.3-5.7Z"/>
    <path class="st187" d="M447.7,487.3c3.6-.5,2.1,6.5-1.8,5.5s.1-5.2,1.8-5.5Z"/>
    <path class="st97" d="M460.3,479c2.1,2.4-1.7,6-3.4,2.9-.6-.9-2.9-3.1-.5-4.6s2.8.7,3.8,1.7Z"/>
    <path class="st177" d="M468,469c3.2-3.4,8,.2,4.8,4.5s-1.4.1-2,.3c1.2-2.7.4-5.2-2.9-4.8Z"/>
    <path class="st22" d="M441.9,471.5c3.8-1.1,3.8,2.4.9,3.8s-3.3-3.1-.9-3.8Z"/>
    <path class="st177" d="M457,481.9c1.9,1.3,3.7-.9,3.4-2.9,3.3,3.1,2.5,3-1.1,5.7-1.9-.3-1.7-1.8-2.2-2.8Z"/>
    <path class="st79" d="M415.5,480.1c1.4-.1,2.3,2.2.6,3-2.9,1.4-3.3-2.8-.6-3Z"/>
    <path class="st177" d="M407.5,543.4c-2.2.5-2.9-1.1-1.9-2.9.9,1,1.2,1.9,1.9,2.9Z"/>
    <path class="st290" d="M554.7,553.1c1.7-.5,8.9,1.2,9.5,2.8,1.1,2.8-7.1,6.9-10.3,2.1s-1.5-4.2.8-4.9Z"/>
    <path class="st246" d="M556.8,584.6c.4-1.3,3.9-8.7,4.4-9,1.2-.7,3,.2,3.3,1.6.8,4-3.5,9-7.7,7.4Z"/>
    <path class="st250" d="M566.8,424.9c21.9-2,42.3,11,49.5,31.8,14.2,40.8-29.5,75.8-67.2,56.2-41-21.3-27.7-83.9,17.7-87.9Z"/>
    <path class="st259" d="M616.8,462.2v3.5c-.5.2-1.2.3-1.9.3l-1.1-1.2c-2.6-15.5-16-29.1-31.2-32.7-49-11.8-74.2,54-31.1,77.9l1,1.6c.9.9,1,1.5.5,1.9-27-11.8-35.9-44-19.1-68.3,22.8-33,74.6-22,83,17Z"/>
    <path class="st76" d="M616.8,462.2c8,37.3-29.2,66.5-63.8,51.4l-.9-1.7.5-.2,1.7-.2c25.2,10.9,57.1-6.4,59.5-34.3l1.2-1c.7-3.1.7-5.6.6-8.7s.2-1.3.3-1.3c.1,0,0,2.3-1,1.4-1.3-.3-1.2-.8,0-1.4-.4-1.6.9-.3,1.2-.9.5-.9-.2-2.3.7-2.9Z"/>
    <path class="st62" d="M614.9,466.1c0,.5,0,1,0,1.4.9.5,1,1.5.9,2.5l-.9,6.2c-.9,4.4-1.3,8.2-3,12.6-8.7,22-38.2,33.7-59.4,22.9-46.2-23.5-20.1-92.9,30.3-80.5,15.8,3.9,30.2,18.4,32.1,34.9Z"/>
    <path class="st259" d="M614.9,467.5l1-1.4c.5,2,1.3,3.3.4,5.4s-1,2.6-1.4,4.7c-.1-2.8.2-5.8,0-8.6Z"/>
    <path class="st134" d="M565.8,431.2c45.3-5.1,66.3,50.9,29.5,76.1-30.2,20.7-71.1-3.8-65.4-40.4,2.7-17.5,17.9-33.7,35.8-35.7Z"/>
    <path class="st32" d="M581.8,452.2c1.1.2,2.2,0,3.5-.5,1.5.2,3.2,6.2,2.3,7.7-2.3,2.1-2.2,3,.4,2.7,4,.4-.4,7.4-2.2,8-6-.4-12.2-.8-13.8,6.4l-1.2.6c-.9.9-1.2.8-1-.5-.9-.6-.8-1.9.3-1.8,2.7-4.6,4.2-8.8-.4-12.9-.9-1.1-1.2-2.3-.4-3.5.3-.2,1.1-.3,1.3-.6.8-1.4-.4-2.1,2.5-3.3,1.4,1,2.6,1.5,3.6,1.5.3-3,1.9-3.6,4.5-3.9.2,0,.3,0,.5,0Z"/>
    <path class="st95" d="M581.8,452.2c1.9-.2,3.7-1.9,4.9.1s1.8,5.6,1.8,5.9c0,1.5-1.8,2.4-2.4,3.6,4.9-.8,4.5,2.5,2.7,5.9-2.8,5.4-8.2,1.4-12.7,3.6s-3.2,2.7-3,4.4c3.7-.9,4.3-5.6,8.8-4.2s1,1,1.7,1.2c1.2.4,3.1.4,3.9.9s3.1,3.2,3.3,3.9c1.2,3.5-.5,3.5-2.3,5.3s-.4,1.4-.8,1.7c-1.2.9-3.6.3-5,0,1,3.8-3.4,3.1-5.9,2.2s-2.8-5.6-5.2-6.4-2.9,3.8-5.8,3.2c-.3-.8.4-1.2.5-1.4.3-.3.6-.4,1-.5.6-1.6,1.5-2.7,3-3.1l.4-1.2c2.6-7.4,7.6-8.7,14.9-7.2l-1-1.4c3.8.4,2.5-.2,3.5-2.5s1.9-2.3.8-3c-1.6-1-5.9.2-7.7.7,1.6-2.7,6.1-2.1,6.3-6s-1.6.2-1.9-.2c-.2-1,.9-1.3,1-2.2s-.6-2.1-.5-3.1c-1.2-.6-2.6.8-3.1.8s-.9-.8-1.2-.8Z"/>
    <path class="st2" d="M566.4,481.9c2.3-9.3-5.6-2.4-9.4-6.7s-2.1-3.4-2.1-3.6c-.1-1.6,1.7-1.9,1.9-2.5s-1.1-2.6-1-4.3.9-.6,1-1c.5-2.3-1-4,2.5-5.1s2.1,1.2,3.2,1.8,1.6-.6,2.4,0,.7,2,1.4,2.4c1.1.7,2.6-.3,3.5,1.8s-.5,5.6-.6,8.3-.3,1.8.5,1.7c1.3-3.1,3.6-6.2,1.8-9.7s-5-4.1-2.3-6.6c-.7,3,2.3,4.4,3.2,6.6,2.2,4.9-1.3,7.4-2.8,11.6.3.9,0,1.2-1,1.2.2,1.3-.3,2.5-1.4,3.6-.2.2-.3.8-.7,1l-.2-.5Z"/>
    <path class="st278" d="M581.3,452.2l-1.2,2.4c-.6.3.3-2.4-1-1.9-3,1.2-2.1,6.6-2.2,9.1-1.6-.5-.4-1.7-.5-2.6-.2-2.1-1.7-3.5-3.3-4.6,1.9-.7,1.4,1.3,3.4,1.4,0-2.8,2.1-4.1,4.8-3.8Z"/>
    <path class="st223" d="M567.4,481.4c.5-1.7,1.1-4.2-.7-5.3s-5.2.4-7.1,0-.4-.8-.7-1-1.3-.3-1.5-.6,0-1.2-.3-1.8c-.5-.8-2.8-1-1.1-2.1s3-.8,5.2-.4c-1.8-1.8-4.9-2.6-4.8-5.8l2.4.5c.3-.3-1.7-3.8-1.2-4.3s1.2-.3,1.6-.6.5-1.5,1.3-1.3c.8.3,1.6,2.8,1.7,2.9.6.4,1.6-1.4,2.4-.7.8,1.2,1,2.7.9,4.1,1.9.3,0-2.1,2.1-1.4,3.5,1.2.5,8.1.8,11.2.3,3.2.8,1.6,1.4,1.7s.7.5,1,.5.2.4.6.4c3.5-.2,7.5-5.9,9.6-5.6s1.2,2.7,1.3,2.8c1,.1,1.3-.8,2.2-1,3.6-.7,2,1.8,2.1,1.9s3.2.4,3.8,1l-1.4,1c.5,1.1,2,.5,1.2,2.4s-2.9,2.2-4.6,1.4l1.4,2.4c-1.4,0-3.2,0-4.4-.6s-1.5-1.8-2.8-1.8c.4,1.8,2.4,2.6,1.9,4.8-1.8-.5-3.8.2-5.2-.7-3.4-2.3-1.8-10.6-9.1-4.1Z"/>
  </g>
</svg>